<svg xmlns="http://www.w3.org/2000/svg" width="995" height="191" viewBox="0 0 995 191" fill="none"><g clip-path="url(#clip0_774_1093)"><path d="M596.43 86.0599C594.13 62.7499 582.9 41.0799 564.91 25.2199C546.91 9.35989 523.42 0.429893 498.95 0.139893H398.25V98.8499C399.27 122.74 409.69 145.39 427.43 162.24C445.16 179.09 468.9 188.92 493.88 189.74H596.44V86.0499L596.43 86.0599Z" fill="url(#paint0_linear_774_1093)"></path><path d="M490.07 49.6845C489.79 49.3945 489.45 49.1745 489.07 49.0145C488.7 48.8645 488.29 48.7845 487.89 48.7945H462.86V51.8145C462.86 52.2045 462.93 52.5845 463.08 52.9445C463.23 53.3045 463.46 53.6245 463.74 53.8845C464.01 54.1745 464.34 54.4045 464.7 54.5745C465.06 54.7345 465.46 54.8245 465.85 54.8345H473.84V85.0045H476.84C477.25 85.0045 477.65 84.9345 478.02 84.7845C478.4 84.6345 478.74 84.4045 479.02 84.1145C479.3 83.8445 479.53 83.5245 479.68 83.1645C479.83 82.8045 479.91 82.4145 479.91 82.0245V54.8345H490.95V51.9945C490.95 51.1345 490.63 50.3045 490.05 49.6845H490.07Z" fill="white"></path><path d="M506.25 59.8244C505.84 59.8144 505.43 59.8844 505.05 60.0344C504.67 60.1844 504.32 60.4044 504.03 60.6944C503.74 60.9644 503.51 61.2944 503.36 61.6544C503.2 62.0144 503.12 62.4044 503.12 62.7944V74.8644C502.04 77.8144 498.76 79.2444 495.24 79.2444C492.32 79.2444 490.91 77.9144 490.91 75.1844V62.8344C490.91 62.4444 490.83 62.0544 490.67 61.6944C490.51 61.3344 490.28 61.0044 489.99 60.7444C489.7 60.4544 489.36 60.2244 488.98 60.0644C488.6 59.9044 488.19 59.8244 487.78 59.8344H484.8V75.7044C484.8 81.7944 487.98 84.8944 494.58 84.8944C497.82 84.8944 501.37 83.7944 503.08 81.6044C503.13 83.1844 502.62 84.7344 501.63 85.9744C500.38 87.5844 497.96 88.2044 495.44 88.2044C492.94 88.1744 490.46 87.7044 488.12 86.8044C487.74 86.7044 487.35 86.6544 486.96 86.6444C486.67 86.6044 486.38 86.6444 486.1 86.7344C485.82 86.8244 485.57 86.9844 485.36 87.1844C485.15 87.3844 484.99 87.6344 484.9 87.9044C484.8 88.1744 484.77 88.4644 484.8 88.7544V91.2144L484.98 91.3144C488.15 93.1245 491.77 94.0245 495.43 93.9245C504.04 93.9245 509.22 89.3544 509.22 80.3244V59.8444H506.25V59.8244ZM534.33 73.8544C534.04 72.9844 533.46 72.2444 532.69 71.7444C533.2 70.9444 533.6 70.0844 533.86 69.1744L537.71 59.8244H534.21C532.3 59.8244 531.07 60.5844 530.56 62.0844L527.94 68.0944C527.74 68.5844 527.14 68.8444 526.14 68.8444H520.41V51.8044C520.41 51.4244 520.34 51.0544 520.19 50.7144C520.04 50.3744 519.82 50.0544 519.54 49.8044C519.26 49.4944 518.92 49.2544 518.54 49.0744C518.16 48.9044 517.75 48.8044 517.33 48.7944H514.28V84.8744H517.33C517.75 84.8744 518.16 84.8044 518.54 84.6544C518.92 84.5044 519.27 84.2644 519.56 83.9744C519.85 83.7044 520.09 83.3844 520.24 83.0144C520.39 82.6444 520.47 82.2544 520.46 81.8644V74.8544H527.18C528.14 74.8544 528.39 75.2844 528.5 75.6144L531.64 82.7544C532.12 84.1644 533.33 84.8944 535.24 84.8944H538.73L534.32 73.8544H534.33Z" fill="white"></path><path d="M466.24 65.8945C466.05 63.9745 465.13 62.1945 463.65 60.8945C462.17 59.5945 460.24 58.8545 458.23 58.8345H449.95V66.9545C450.03 68.9245 450.89 70.7845 452.35 72.1645C453.81 73.5545 455.76 74.3545 457.82 74.4245H466.26V65.8945H466.24Z" fill="white"></path><path opacity="0.9" d="M7.79028 117.35H14.7903V116.27V110.71C14.6803 107.34 11.9903 104.65 8.63028 104.51H3.03028H1.93028V111.02C1.95028 114.35 4.51028 117.06 7.77028 117.35C7.77028 117.35 7.77028 117.37 7.79028 117.37V117.35ZM69.1803 115.38L76.3203 115.72L77.6603 115.78L77.7203 114.45V114.24L78.0403 107.72C78.0803 103.63 74.9603 100.22 70.9103 99.8598L64.5303 99.5598L64.1303 99.5398L62.7903 99.4798L62.7303 100.81V101.02L62.4203 107.37C62.2803 111.41 65.2203 114.84 69.1603 115.36C69.1603 115.36 69.1603 115.38 69.1803 115.38ZM141.89 119.58L150.69 118.87L152.34 118.74L152.21 117.1L152.19 116.83L151.55 108.8C150.97 103.8 146.61 100.11 141.59 100.29L133.74 100.92L133.24 100.96L131.59 101.09L131.72 102.73L131.74 103L132.36 110.82C132.81 115.78 136.95 119.51 141.86 119.55C141.86 119.55 141.86 119.58 141.89 119.58ZM171.35 120.57L179.43 120.12L180.95 120.04L180.87 118.54V118.3L180.44 110.93C180.01 106.33 176.11 102.85 171.51 102.92L164.3 103.32L163.84 103.35L162.32 103.43L162.4 104.93V105.17L162.82 112.35C163.12 116.91 166.84 120.42 171.34 120.56C171.34 120.56 171.34 120.59 171.37 120.58L171.35 120.57ZM209.36 118.91L215.83 118.86H217.04V117.65V117.46L216.99 111.55C216.83 107.86 213.84 104.93 210.16 104.8L204.38 104.84H202.8V106.25L202.85 112C202.92 115.65 205.75 118.6 209.34 118.89C209.34 118.89 209.34 118.91 209.36 118.91ZM241.35 118.31L247.49 118.7L248.64 118.78L248.72 117.64V117.45L249.09 111.84C249.19 108.33 246.55 105.35 243.07 104.97L237.59 104.62L237.24 104.6L236.09 104.52L236.01 105.66V105.85L235.65 111.31C235.46 114.78 237.95 117.78 241.33 118.28C241.33 118.28 241.33 118.3 241.34 118.3L241.35 118.31ZM310.75 118.25L318.19 117.62L319.58 117.5L319.46 116.12L319.44 115.89L318.86 109.1C318.35 104.87 314.65 101.76 310.41 101.94L303.77 102.5L303.35 102.53L301.96 102.65L302.08 104.03L302.1 104.26L302.66 110.87C303.06 115.07 306.57 118.21 310.72 118.22C310.72 118.22 310.72 118.24 310.75 118.24V118.25ZM342.06 116.28L348.36 116.8L349.54 116.9L349.64 115.73V115.54L350.13 109.79C350.29 106.18 347.65 103.07 344.08 102.63L338.46 102.16L338.1 102.13L336.92 102.03L336.82 103.2V103.39L336.34 108.99C336.09 112.55 338.58 115.67 342.04 116.26C342.04 116.26 342.04 116.28 342.06 116.28ZM41.9603 153.76L48.7003 153.96L49.9603 153.99L49.9903 152.74V152.53L50.1803 146.37C50.1503 142.52 47.1603 139.35 43.3303 139.08L37.3103 138.9H36.9303L35.6703 138.85L35.6403 140.1V140.31L35.4503 146.3C35.3703 150.11 38.2103 153.29 41.9403 153.73C41.9403 153.73 41.9403 153.75 41.9603 153.75V153.76ZM106.31 151.67L113.89 151.96L115.31 152.01L115.36 150.6V150.37L115.63 143.45C115.63 139.12 112.29 135.53 107.99 135.18L101.22 134.93H100.79L99.3703 134.86L99.3203 136.27V136.5L99.0603 143.24C98.9403 147.52 102.1 151.12 106.29 151.65C106.29 151.65 106.29 151.67 106.31 151.67ZM172.9 151.25L181.39 150.8L182.98 150.72L182.9 149.14V148.89L182.47 141.14C182.03 136.31 177.94 132.64 173.1 132.69L165.52 133.09L165.04 133.12L163.45 133.2L163.53 134.78V135.03L163.95 142.57C164.26 147.36 168.15 151.06 172.88 151.22C172.88 151.22 172.88 151.25 172.91 151.25H172.9ZM237.4 150.6L246.63 150.67H248.36L248.37 148.96V148.69L248.44 140.26C248.29 134.99 244.09 130.74 238.84 130.48L230.6 130.42H228.35L228.34 132.13V132.4L228.28 140.61C228.29 145.82 232.28 150.09 237.38 150.58C237.38 150.58 237.38 150.61 237.41 150.61L237.4 150.6ZM278.17 148.74L283.76 148.67H284.81L284.8 147.61V147.45L284.73 142.35C284.57 139.16 281.98 136.65 278.8 136.55L273.81 136.61H273.49L272.44 136.63V137.67L272.45 137.83L272.52 142.79C272.6 145.94 275.06 148.48 278.15 148.71C278.15 148.71 278.15 148.72 278.16 148.72L278.17 148.74ZM341.76 150.05L347.4 150.3L348.46 150.35L348.51 149.3V149.13L348.75 143.97C348.78 140.74 346.3 138.05 343.1 137.77L338.06 137.54H337.74L336.68 137.48L336.63 138.53V138.7L336.4 143.72C336.29 146.91 338.63 149.61 341.74 150.02C341.74 150.02 341.74 150.03 341.75 150.04L341.76 150.05ZM377.44 152.2L385.48 152.17H386.99V150.43L386.96 143.09C386.77 138.5 383.07 134.85 378.51 134.68L371.33 134.71H369.37V136.45L369.4 143.59C369.47 148.13 372.97 151.8 377.42 152.17C377.42 152.17 377.42 152.2 377.45 152.2H377.44ZM75.7103 181.82L81.2303 181.9H82.2703L82.2803 180.89V180.73L82.3503 175.69C82.2703 172.54 79.7903 169.99 76.6503 169.81L71.7303 169.74H71.4203L70.3803 169.72V170.75L70.3703 170.91L70.3003 175.81C70.3003 178.92 72.6503 181.49 75.7003 181.8C75.7003 181.8 75.7003 181.81 75.7103 181.81V181.82ZM139.47 183.51L145.96 183.04L147.18 182.95L147.09 181.74V181.55L146.65 175.63C146.25 171.93 143.06 169.19 139.36 169.29L133.57 169.71L133.2 169.74L131.98 169.83L132.07 171.04V171.23L132.5 177C132.8 180.66 135.84 183.44 139.46 183.49C139.46 183.49 139.46 183.51 139.48 183.51H139.47ZM205.6 183.89L213.22 183.7L214.65 183.67L214.62 182.25V182.02L214.44 175.07C214.17 170.73 210.6 167.34 206.27 167.26L199.47 167.42H199.04L197.61 167.47L197.64 168.89V169.12L197.81 175.89C197.96 180.19 201.35 183.6 205.58 183.86C205.58 183.86 205.58 183.88 205.6 183.88V183.89ZM239.25 186.12L245.14 185.72L246.24 185.64L246.16 184.54V184.36L245.78 178.98C245.43 175.63 242.54 173.12 239.19 173.21L233.93 173.57L233.59 173.59L232.49 173.67L232.57 174.77V174.95L232.94 180.18C233.2 183.5 235.94 186.03 239.22 186.09C239.22 186.09 239.22 186.11 239.24 186.1L239.25 186.12ZM311.21 180.43L316.82 180L317.87 179.92L317.79 178.88V178.71L317.39 173.59C317.03 170.4 314.27 168.03 311.07 168.13L306.06 168.51L305.74 168.53L304.69 168.61L304.77 169.65V169.82L305.16 174.8C305.43 177.97 308.07 180.36 311.19 180.39C311.19 180.39 311.19 180.4 311.21 180.4V180.43ZM376.88 184.77L385.61 184.12L387.25 184L387.13 182.38L387.11 182.12L386.51 174.15C385.95 169.18 381.66 165.49 376.68 165.66L368.88 166.24L368.39 166.27L366.75 166.39L366.87 168.01L366.89 168.27L367.47 176.03C367.89 180.96 371.98 184.69 376.85 184.74C376.85 184.74 376.85 184.77 376.88 184.77ZM410.38 179.99L415.97 179.76L417.02 179.72L416.98 178.68V178.52L416.76 173.41C416.51 170.22 413.84 167.78 410.66 167.77L405.67 167.98H405.35L404.3 168.03L404.34 169.07V169.23L404.55 174.2C404.71 177.35 407.25 179.82 410.36 179.97C410.36 179.97 410.36 179.98 410.38 179.98V179.99ZM75.7103 17.9098L81.2303 17.9898H82.2703L82.2803 16.9798V16.8198L82.3503 11.7798C82.2703 8.62978 79.7903 6.07978 76.6503 5.89978L71.7303 5.82978H71.4203L70.3803 5.80978V6.83978L70.3703 6.99978L70.3003 11.8998C70.3003 15.0098 72.6503 17.5798 75.7003 17.8898C75.7003 17.8898 75.7003 17.8998 75.7103 17.8998V17.9098ZM106.32 25.2798L114.81 25.5898L116.4 25.6398L116.45 24.0598V23.8098L116.74 16.0598C116.74 11.2098 112.98 7.18978 108.16 6.79978L100.57 6.52978L100.09 6.50978L98.5003 6.45978L98.4503 8.03978V8.28978L98.1703 15.8498C98.0503 20.6498 101.6 24.6898 106.29 25.2598C106.29 25.2598 106.29 25.2898 106.32 25.2898V25.2798ZM205.6 19.9798L213.22 19.7898L214.65 19.7598L214.62 18.3398V18.1098L214.44 11.1598C214.17 6.81978 210.6 3.42978 206.27 3.34978L199.47 3.50978H199.04L197.61 3.55978L197.64 4.97978V5.20978L197.81 11.9798C197.96 16.2798 201.35 19.6898 205.58 19.9498C205.58 19.9498 205.58 19.9698 205.6 19.9698V19.9798ZM274.94 15.8598L280.51 15.5498L281.55 15.4998L281.5 14.4598V14.2998L281.21 9.21978C280.92 6.04978 278.23 3.64978 275.05 3.68978L270.08 3.95978L269.76 3.97978L268.72 4.02978L268.77 5.06978V5.22978L269.06 10.1698C269.27 13.3098 271.83 15.7298 274.92 15.8298C274.92 15.8298 274.92 15.8398 274.94 15.8398V15.8598ZM341.43 17.5798L347.99 17.1798L349.22 17.0998L349.14 15.8798V15.6798L348.76 9.68978C348.4 5.94978 345.21 3.13978 341.47 3.20978L335.61 3.56978L335.24 3.58978L334.01 3.66978L334.09 4.88978V5.08978L334.46 10.9198C334.73 14.6198 337.76 17.4598 341.41 17.5598C341.41 17.5598 341.41 17.5798 341.43 17.5798ZM376.88 20.8598L385.61 20.2098L387.25 20.0898L387.13 18.4698L387.11 18.2098L386.51 10.2398C385.95 5.26978 381.66 1.57978 376.68 1.74978L368.88 2.32978L368.39 2.35978L366.75 2.47978L366.87 4.09978L366.89 4.35978L367.47 12.1198C367.89 17.0498 371.98 20.7798 376.85 20.8298C376.85 20.8298 376.85 20.8598 376.88 20.8598ZM6.18028 50.9998L11.6903 51.1598L12.7303 51.1898L12.7603 50.1598V49.9998L12.9203 44.9698C12.9003 41.8198 10.4503 39.2298 7.33028 39.0098L2.41028 38.8598H2.10028L1.06028 38.8198L1.03028 39.8498V40.0098L0.870278 44.9098C0.810278 48.0198 3.13028 50.6298 6.16028 50.9798C6.16028 50.9798 6.16028 50.9898 6.17028 50.9898L6.18028 50.9998ZM41.0503 51.8998L47.1203 52.3298L48.2603 52.4098L48.3403 51.2798V51.0898L48.7503 45.5398C48.8703 42.0598 46.2803 39.0998 42.8403 38.6998L37.4203 38.3198L37.0803 38.2898L35.9403 38.2098L35.8603 39.3398V39.5298L35.4603 44.9298C35.2503 48.3598 37.7003 51.3398 41.0303 51.8798C41.0303 51.8798 41.0303 51.8998 41.0403 51.8998H41.0503ZM137.19 52.3998L144.89 52.3698H146.34V50.9298V50.6998L146.31 43.6698C146.12 39.2798 142.58 35.7798 138.21 35.6098L131.33 35.6398H129.44V37.3098L129.48 44.1598C129.55 48.5098 132.91 52.0298 137.17 52.3798C137.17 52.3798 137.17 52.3998 137.19 52.3998ZM206.57 51.2198L213.28 51.3298L214.54 51.3498L214.56 50.0998V49.8998L214.66 43.7698C214.58 39.9398 211.55 36.8198 207.74 36.5998L201.75 36.4998H201.37L200.11 36.4698L200.09 37.7198V37.9198L199.99 43.8798C199.97 47.6698 202.84 50.7998 206.54 51.1898C206.54 51.1898 206.54 51.2098 206.56 51.2098L206.57 51.2198ZM244.08 55.9398L251.55 55.5998L252.95 55.5398L252.89 54.1498V53.9198L252.56 47.0998C252.21 42.8398 248.62 39.5898 244.37 39.6098L237.7 39.9198L237.27 39.9398L235.87 39.9998L235.93 41.3898V41.6198L236.25 48.2598C236.49 52.4798 239.9 55.7598 244.05 55.9298C244.05 55.9298 244.05 55.9498 244.07 55.9498L244.08 55.9398ZM306.52 51.1598L311.48 51.3398L312.41 51.3698L312.44 50.4398V50.2898L312.61 45.7598C312.61 42.9298 310.42 40.5798 307.6 40.3598L303.17 40.1998H302.89L301.96 40.1598L301.93 41.0898V41.2398L301.77 45.6498C301.7 48.4498 303.77 50.8098 306.51 51.1498C306.51 51.1498 306.51 51.1598 306.52 51.1598ZM341.53 57.2598L351.2 57.4198L353.01 57.4498L353.04 55.6498V55.3598L353.2 46.5398C353.09 41.0198 348.74 36.5398 343.25 36.2098L334.62 36.0598H334.07L332.26 36.0198L332.23 37.8198V38.1098L332.08 46.6998C332.05 52.1598 336.17 56.6698 341.51 57.2198C341.51 57.2198 341.51 57.2498 341.54 57.2498L341.53 57.2598ZM372.38 58.7298L381.29 59.4798L382.96 59.6198L383.1 57.9598L383.12 57.6898L383.81 49.5498C384.06 44.4498 380.31 40.0298 375.27 39.3898L367.31 38.7198L366.8 38.6798L365.13 38.5398L364.99 40.1998L364.97 40.4698L364.3 48.3998C363.92 53.4398 367.45 57.8598 372.35 58.6998C372.35 58.6998 372.35 58.7298 372.38 58.7298ZM40.0103 87.0298L47.8903 86.4698L49.3703 86.3698L49.2703 84.8998V84.6598L48.7503 77.4598C48.2703 72.9698 44.4003 69.6198 39.9103 69.7498L32.8703 70.2398L32.4203 70.2698L30.9403 70.3698L31.0403 71.8398V72.0798L31.5503 79.0898C31.9103 83.5398 35.6003 86.9298 39.9803 86.9998C39.9803 86.9998 39.9803 87.0198 40.0103 87.0198V87.0298ZM108.42 89.3898L118.1 88.6298L119.92 88.4898L119.78 86.6898L119.76 86.3998L119.07 77.5598C118.43 72.0498 113.65 67.9798 108.13 68.1798L99.4803 68.8598L98.9303 68.8998L97.1103 69.0398L97.2503 70.8398L97.2703 71.1298L97.9403 79.7298C98.4303 85.1898 102.98 89.3098 108.37 89.3598C108.37 89.3598 108.37 89.3898 108.4 89.3898H108.42ZM174.58 91.3998L183.03 91.4998L184.61 91.5198L184.63 89.9398V89.6898L184.72 81.9698C184.6 77.1398 180.76 73.2398 175.96 72.9798L168.41 72.8998H167.93L166.35 72.8798L166.33 74.4598V74.7098L166.24 82.2198C166.24 86.9898 169.87 90.9198 174.54 91.3798C174.54 91.3798 174.54 91.4098 174.57 91.4098L174.58 91.3998ZM274.48 84.3298L281.99 84.9398L283.4 85.0598L283.52 83.6598L283.54 83.4298L284.1 76.5698C284.29 72.2698 281.13 68.5598 276.87 68.0298L270.16 67.4798L269.73 67.4498L268.32 67.3298L268.2 68.7298L268.18 68.9598L267.64 75.6398C267.34 79.8798 270.32 83.5998 274.45 84.2998C274.45 84.2998 274.45 84.3198 274.47 84.3298H274.48ZM307.93 85.8698L313.59 86.2698L314.65 86.3498L314.73 85.2898V85.1198L315.11 79.9498C315.23 76.7098 312.81 73.9398 309.61 73.5698L304.56 73.2098L304.24 73.1898L303.18 73.1098L303.1 74.1698V74.3398L302.72 79.3698C302.52 82.5598 304.8 85.3398 307.91 85.8398C307.91 85.8398 307.91 85.8498 307.92 85.8598L307.93 85.8698ZM375.19 86.6898L382.62 86.6398H384.01V85.2498V85.0198L383.97 78.2298C383.79 73.9898 380.36 70.6198 376.13 70.4698L369.49 70.5098H367.68V72.1298L367.73 78.7398C367.8 82.9398 371.06 86.3298 375.17 86.6598C375.17 86.6598 375.17 86.6798 375.19 86.6798V86.6898Z" fill="url(#paint1_linear_774_1093)"></path><path opacity="0.9" d="M616.99 119.96L616.96 119.94C612.23 119.91 608.23 116.31 607.79 111.53L607.18 103.99L607.16 103.74L607.03 102.16L608.62 102.03L609.1 101.99L616.68 101.37C621.52 101.18 625.72 104.74 626.29 109.56L626.92 117.31L626.94 117.56L627.07 119.14L625.48 119.27L617 119.96H616.99ZM679.85 116.68L686.4 116.7H687.63V115.29L687.65 109.3C687.53 105.56 684.53 102.56 680.81 102.39L674.95 102.37H673.35V103.79L673.33 109.62C673.36 113.32 676.2 116.34 679.82 116.67C679.82 116.67 679.82 116.69 679.84 116.69L679.85 116.68ZM718.91 124.33L728.19 123.55L729.93 123.41L729.79 121.68L729.77 121.4L729.05 112.93C728.41 107.65 723.8 103.78 718.51 104L710.22 104.7L709.69 104.74L707.95 104.88L708.09 106.61L708.11 106.89L708.81 115.14C709.31 120.38 713.7 124.3 718.87 124.31C718.87 124.31 718.87 124.34 718.9 124.34L718.91 124.33ZM814.93 117.68L823.72 117.83L825.37 117.86L825.4 116.22V115.95L825.54 107.92C825.44 102.9 821.48 98.8199 816.49 98.5299L808.64 98.3999H808.15L806.5 98.3699L806.47 100.01V100.28L806.33 108.1C806.3 113.06 810.05 117.17 814.91 117.67C814.91 117.67 814.91 117.7 814.94 117.7L814.93 117.68ZM880.43 122.21L888.78 122.83L890.34 122.95L890.46 121.39L890.48 121.14L891.05 113.52C891.23 108.74 887.69 104.65 882.96 104.09L875.51 103.53L875.04 103.5L873.48 103.38L873.36 104.94L873.34 105.19L872.78 112.61C872.48 117.33 875.82 121.43 880.41 122.18C880.41 122.18 880.41 122.21 880.43 122.21ZM948.92 121.37L957 120.92L958.52 120.84L958.44 119.34V119.1L958.01 111.73C957.58 107.13 953.68 103.65 949.08 103.72L941.87 104.12L941.41 104.15L939.89 104.23L939.97 105.73V105.97L940.39 113.15C940.69 117.71 944.41 121.22 948.91 121.36C948.91 121.36 948.91 121.39 948.94 121.38L948.92 121.37ZM615.47 148.37L621.42 148.07L622.54 148.02L622.49 146.91V146.73L622.21 141.3C621.92 137.91 619.05 135.34 615.66 135.36L610.35 135.63H610.01L608.89 135.7L608.94 136.81V136.99L609.21 142.28C609.42 145.64 612.14 148.24 615.44 148.36C615.44 148.36 615.44 148.38 615.46 148.37H615.47ZM650.5 152.55L657.14 153.04L658.39 153.14L658.48 151.91V151.71L658.95 145.65C659.09 141.85 656.28 138.6 652.51 138.15L646.58 137.7L646.2 137.67L644.95 137.57L644.86 138.8V139L644.41 144.9C644.17 148.65 646.82 151.92 650.48 152.51C650.48 152.51 650.48 152.53 650.5 152.53V152.55ZM684.93 153.97L691.6 154.02H692.85V152.79V152.59L692.9 146.49C692.79 142.68 689.75 139.61 685.96 139.42L680 139.38H678.37V140.61V140.81L678.32 146.74C678.33 150.51 681.21 153.6 684.9 153.95C684.9 153.95 684.9 153.97 684.92 153.97H684.93ZM753.32 148.89L759.87 148.52L761.1 148.45L761.03 147.23V147.03L760.68 141.04C760.33 137.3 757.16 134.48 753.43 134.53L747.57 134.86L747.2 134.88L745.97 134.95L746.04 136.17V136.37L746.38 142.2C746.63 145.9 749.64 148.75 753.29 148.86C753.29 148.86 753.29 148.88 753.31 148.88L753.32 148.89ZM782.01 152.32L788.67 151.93L789.92 151.85L789.84 150.61V150.41L789.47 144.34C789.11 140.55 785.88 137.69 782.09 137.75L776.15 138.1L775.77 138.12L774.52 138.2L774.6 139.44V139.64L774.96 145.56C775.22 149.32 778.29 152.2 781.99 152.31C781.99 152.31 781.99 152.33 782.01 152.33V152.32ZM851.8 149.82L857.76 149.9H858.88L858.89 148.8V148.62L858.96 143.18C858.88 139.77 856.18 137.02 852.79 136.84L847.46 136.77H847.12L846 136.75V137.86L845.99 138.04L845.92 143.34C845.92 146.71 848.47 149.48 851.77 149.81C851.77 149.81 851.77 149.83 851.79 149.83L851.8 149.82ZM950.47 152.05L958.96 151.6L960.55 151.52L960.47 149.94V149.69L960.04 141.94C959.6 137.11 955.51 133.44 950.67 133.49L943.09 133.89L942.61 133.92L941.02 134L941.1 135.58V135.83L941.52 143.37C941.83 148.16 945.72 151.86 950.45 152.02C950.45 152.02 950.45 152.05 950.48 152.05H950.47ZM985.99 149.09L993.5 149.18H994.91L994.92 147.8V147.57L995 140.71C994.9 136.42 991.49 132.96 987.23 132.72L980.52 132.64H980.09L978.68 132.62V134.02L978.67 134.25L978.59 140.93C978.59 145.17 981.81 148.66 985.96 149.07C985.96 149.07 985.96 149.09 985.98 149.09H985.99ZM614.49 184.17L621.06 183.66L622.29 183.56L622.19 182.34V182.14L621.71 176.14C621.28 172.4 618.04 169.63 614.29 169.76L608.42 170.21L608.05 170.24L606.82 170.34L606.92 171.56V171.76L607.39 177.6C607.72 181.31 610.8 184.11 614.47 184.14C614.47 184.14 614.47 184.16 614.49 184.16V184.17ZM649.43 189.71L657.62 189.17L659.16 189.07L659.06 187.55V187.3L658.55 179.82C658.07 175.16 654.07 171.67 649.4 171.78L642.08 172.27L641.61 172.3L640.07 172.4L640.17 173.92V174.17L640.67 181.45C641.03 186.07 644.84 189.6 649.4 189.69C649.4 189.69 649.4 189.72 649.43 189.71ZM717.65 184.6L725.36 185.08L726.81 185.17L726.9 183.74V183.51L727.35 176.48C727.46 172.07 724.15 168.34 719.78 167.88L712.9 167.45L712.46 167.42L711.01 167.33L710.92 168.76V168.99L710.48 175.84C710.25 180.19 713.39 183.94 717.62 184.57C717.62 184.57 717.62 184.59 717.64 184.6H717.65ZM784.64 187.97L791.45 188.13L792.73 188.16L792.76 186.89V186.68L792.92 180.47C792.87 176.58 789.83 173.4 785.96 173.14L779.89 173H779.51L778.23 172.96L778.2 174.23V174.44L778.05 180.49C778 184.34 780.88 187.53 784.64 187.95C784.64 187.95 784.64 187.97 784.66 187.97H784.64ZM883.9 190L892.39 190.31L893.98 190.36L894.03 188.78V188.53L894.32 180.78C894.32 175.93 890.56 171.91 885.74 171.52L878.15 171.25L877.67 171.23L876.08 171.18L876.03 172.76V173.01L875.75 180.57C875.63 185.37 879.18 189.41 883.87 189.98C883.87 189.98 883.87 190.01 883.9 190.01V190ZM917.05 184.31L923.54 183.84L924.76 183.75L924.67 182.54V182.35L924.23 176.43C923.83 172.73 920.64 169.99 916.94 170.09L911.15 170.51L910.78 170.54L909.56 170.63L909.65 171.84V172.03L910.08 177.8C910.38 181.46 913.42 184.24 917.04 184.29C917.04 184.29 917.04 184.31 917.06 184.31H917.05ZM583.58 24.2699L590.68 24.3499H592.01L592.02 23.0399V22.8299L592.09 16.3399C591.99 12.2899 588.76 9.00993 584.73 8.79993L578.39 8.72993H577.99L576.66 8.70993V10.0299L576.65 10.2399L576.58 16.5499C576.58 20.5599 579.63 23.8499 583.56 24.2399C583.56 24.2399 583.56 24.2599 583.58 24.2599V24.2699ZM614.49 20.2599L621.06 19.7499L622.29 19.6499L622.19 18.4299V18.2299L621.71 12.2299C621.28 8.48993 618.04 5.71993 614.29 5.84993L608.42 6.29993L608.05 6.32993L606.82 6.42993L606.92 7.64993V7.84993L607.39 13.6899C607.72 17.3999 610.8 20.1999 614.47 20.2299C614.47 20.2299 614.47 20.2499 614.49 20.2499V20.2599ZM681.65 19.5699L688.86 19.1999L690.21 19.1299L690.14 17.7899V17.5699L689.79 10.9799C689.43 6.86993 685.96 3.74993 681.84 3.78993L675.4 4.11993L675 4.13993L673.65 4.20993L673.72 5.54993V5.76993L674.06 12.1799C674.31 16.2499 677.62 19.4099 681.63 19.5399C681.63 19.5399 681.63 19.5599 681.65 19.5599V19.5699ZM751.66 22.5199L759.27 22.0899L760.7 22.0099L760.62 20.5899V20.3599L760.22 13.4099C759.82 9.07993 756.13 5.79993 751.8 5.84993L745.01 6.22993L744.58 6.25993L743.15 6.33993L743.23 7.75993V7.98993L743.62 14.7599C743.91 19.0499 747.41 22.3699 751.64 22.4899C751.64 22.4899 751.64 22.5099 751.66 22.5099V22.5199ZM784.64 24.0599L791.45 24.2199L792.73 24.2499L792.76 22.9799V22.7699L792.92 16.5599C792.87 12.6699 789.83 9.48993 785.96 9.22993L779.89 9.08993H779.51L778.23 9.04993L778.2 10.3199V10.5299L778.05 16.5799C778 20.4299 780.88 23.6199 784.64 24.0399C784.64 24.0399 784.64 24.0599 784.66 24.0599H784.64ZM853.28 18.7099L858.8 18.7899H859.84L859.85 17.7799V17.6199L859.92 12.5799C859.84 9.42993 857.36 6.87993 854.22 6.69993L849.3 6.62993H848.99L847.95 6.60993V7.63993L847.94 7.79993L847.87 12.6999C847.87 15.8099 850.22 18.3799 853.27 18.6899C853.27 18.6899 853.27 18.6999 853.28 18.6999V18.7099ZM917.05 20.3999L923.54 19.9299L924.76 19.8399L924.67 18.6299V18.4399L924.23 12.5199C923.83 8.81993 920.64 6.07993 916.94 6.17993L911.15 6.59993L910.78 6.62993L909.56 6.71993L909.65 7.92993V8.11993L910.08 13.8899C910.38 17.5499 913.42 20.3299 917.04 20.3799C917.04 20.3799 917.04 20.3999 917.06 20.3999H917.05ZM613.34 53.1199L619.52 52.7299L620.68 52.6499L620.6 51.4999V51.3099L620.23 45.6699C619.88 42.1499 616.87 39.5099 613.35 39.5699L607.83 39.9199L607.48 39.9399L606.32 40.0199L606.4 41.1699V41.3599L606.76 46.8599C607.01 50.3499 609.88 53.0199 613.32 53.1099C613.32 53.1099 613.32 53.1299 613.34 53.1299V53.1199ZM645.22 56.3099L652.3 56.8399L653.63 56.9399L653.73 55.6199V55.4099L654.23 48.9399C654.39 44.8899 651.39 41.4099 647.37 40.9399L641.05 40.4599L640.65 40.4299L639.32 40.3299L639.22 41.6499V41.8599L638.73 48.1499C638.47 52.1499 641.3 55.6399 645.2 56.2699C645.2 56.2699 645.2 56.2899 645.22 56.2899V56.3099ZM715.1 54.3199L723.1 54.8999L724.6 55.0099L724.71 53.5199L724.73 53.2799L725.26 45.9699C725.42 41.3899 722.02 37.4799 717.49 36.9499L710.35 36.4299L709.9 36.3999L708.4 36.2899L708.29 37.7799L708.27 38.0199L707.75 45.1299C707.47 49.6499 710.68 53.5799 715.08 54.2899C715.08 54.2899 715.08 54.3199 715.1 54.3199ZM752.36 53.0499L757.76 52.8899L758.77 52.8599L758.74 51.8499V51.6899L758.59 46.7599C758.38 43.6799 755.83 41.2999 752.76 41.2599L747.94 41.3999H747.63L746.62 41.4399L746.65 42.4499V42.6099L746.8 47.4099C746.92 50.4499 749.34 52.8699 752.34 53.0299C752.34 53.0299 752.34 53.0399 752.35 53.0399L752.36 53.0499ZM818.63 52.6999L824.7 53.1299L825.84 53.2099L825.92 52.0799V51.8899L826.33 46.3399C826.45 42.8599 823.86 39.8999 820.42 39.4999L815 39.1199L814.66 39.0899L813.52 39.0099L813.44 40.1399V40.3299L813.04 45.7299C812.83 49.1599 815.28 52.1399 818.61 52.6799C818.61 52.6799 818.61 52.6999 818.62 52.6999H818.63ZM882.11 54.4799L888.17 54.7399L889.31 54.7899L889.36 53.6599V53.4699L889.61 47.9399C889.63 44.4799 886.97 41.5899 883.54 41.2999L878.13 41.0699H877.79L876.65 41.0099L876.6 42.1399V42.3299L876.36 47.7199C876.25 51.1399 878.77 54.0399 882.11 54.4799C882.11 54.4799 882.11 54.4999 882.13 54.4999L882.11 54.4799ZM950.09 53.3999L956.86 53.7499L958.13 53.8199L958.2 52.5599V52.3499L958.54 46.1699C958.6 42.2999 955.66 39.0499 951.82 38.6899L945.78 38.3699L945.4 38.3499L944.13 38.2799L944.06 39.5399V39.7499L943.73 45.7699C943.57 49.5999 946.35 52.8599 950.08 53.3699C950.08 53.3699 950.08 53.3899 950.1 53.3899L950.09 53.3999ZM646.29 88.0099L651.44 88.2699L652.41 88.3199L652.46 87.3599V87.1999L652.71 82.4999C652.75 79.5599 650.51 77.0799 647.59 76.8199L643 76.5899H642.71L641.74 76.5299L641.69 77.4899V77.6499L641.45 82.2299C641.33 85.1399 643.45 87.6199 646.29 88.0099C646.29 88.0099 646.29 88.0199 646.3 88.0199L646.29 88.0099ZM680.95 85.7399L689.29 85.3999L690.85 85.3399L690.79 83.7799V83.5299L690.47 75.9099C690.1 71.1499 686.12 67.4999 681.37 67.4899L673.92 67.7899L673.45 67.8099L671.89 67.8699L671.95 69.4299V69.6799L672.27 77.0999C672.51 81.8099 676.29 85.4999 680.93 85.7099C680.93 85.7099 680.93 85.7399 680.96 85.7399H680.95ZM747.24 88.2099L755.66 88.2399H757.24V86.4199L757.27 78.7299C757.11 73.9199 753.27 70.0699 748.47 69.8499L740.95 69.8199H738.9V71.6399L738.87 79.1299C738.9 83.8799 742.55 87.7699 747.21 88.1899C747.21 88.1899 747.21 88.2199 747.24 88.2199V88.2099ZM784.1 89.1499L791.24 89.3699L792.58 89.4099L792.62 88.0799V87.8699L792.83 81.3499C792.81 77.2699 789.64 73.9099 785.58 73.6199L779.2 73.4199H778.8L777.46 73.3699L777.42 74.6999V74.9099L777.21 81.2599C777.13 85.2899 780.12 88.6699 784.07 89.1399C784.07 89.1399 784.07 89.1599 784.09 89.1599L784.1 89.1499ZM817.59 87.8299L825.47 87.2699L826.95 87.1699L826.85 85.6999V85.4599L826.33 78.2599C825.85 73.7699 821.98 70.4199 817.49 70.5499L810.45 71.0399L810 71.0699L808.52 71.1699L808.62 72.6399V72.8799L809.13 79.8899C809.49 84.3399 813.18 87.7299 817.56 87.7999C817.56 87.7999 817.56 87.8199 817.59 87.8199V87.8299ZM850.01 87.1899L858.64 86.5199L860.26 86.3999L860.14 84.7999L860.12 84.5399L859.51 76.6599C858.95 71.7499 854.68 68.1199 849.76 68.2899L842.05 68.8899L841.56 68.9299L839.94 69.0499L840.06 70.6499L840.08 70.9099L840.68 78.5799C841.11 83.4499 845.17 87.1199 849.98 87.1599C849.98 87.1599 849.98 87.1899 850.01 87.1799V87.1899ZM916.57 87.9199L925.88 87.1399L927.63 86.9999L927.49 85.2699L927.47 84.9899L926.76 76.4899C926.12 71.1999 921.5 67.2999 916.19 67.5199L907.88 68.2199L907.35 68.2599L905.6 68.3999L905.74 70.1299L905.76 70.4099L906.45 78.6899C906.94 83.9399 911.35 87.8799 916.54 87.8999C916.54 87.8999 916.54 87.9299 916.57 87.9299V87.9199ZM982.56 86.1399L988.87 86.2899L990.06 86.3199L990.09 85.1499V84.9599L990.23 79.1999C990.19 75.5899 987.36 72.6499 983.79 72.4099L978.15 72.2699H977.79L976.6 72.2399L976.57 73.4099V73.5999L976.43 79.2099C976.38 82.7799 979.05 85.7399 982.54 86.1299C982.54 86.1299 982.54 86.1499 982.56 86.1499V86.1399Z" fill="url(#paint2_linear_774_1093)"></path><path d="M532.583 148V132.6H539.271C540.195 132.6 541.038 132.82 541.801 133.26C542.563 133.685 543.165 134.272 543.605 135.02C544.059 135.753 544.287 136.582 544.287 137.506C544.287 138.386 544.059 139.2 543.605 139.948C543.165 140.681 542.563 141.268 541.801 141.708C541.053 142.133 540.209 142.346 539.271 142.346H535.377V148H532.583ZM541.515 148L537.599 141.048L540.547 140.498L544.903 148.022L541.515 148ZM535.377 139.86H539.293C539.718 139.86 540.085 139.765 540.393 139.574C540.715 139.369 540.965 139.09 541.141 138.738C541.317 138.386 541.405 137.997 541.405 137.572C541.405 137.088 541.295 136.67 541.075 136.318C540.855 135.966 540.547 135.687 540.151 135.482C539.755 135.277 539.3 135.174 538.787 135.174H535.377V139.86Z" fill="white"></path><path d="M518.833 148V132.6H528.909V135.196H521.649V145.404H528.997V148H518.833ZM520.153 141.4V138.848H527.787V141.4H520.153Z" fill="white"></path><path d="M508.635 148V135.24H504.235V132.6H516.027V135.24H511.495V148H508.635Z" fill="white"></path><path d="M488.003 148V132.6H490.577L499.509 144.634L499.025 144.722C498.966 144.311 498.915 143.893 498.871 143.468C498.827 143.028 498.783 142.573 498.739 142.104C498.709 141.635 498.68 141.143 498.651 140.63C498.636 140.117 498.621 139.581 498.607 139.024C498.592 138.452 498.585 137.851 498.585 137.22V132.6H501.423V148H498.805L489.829 136.142L490.401 135.988C490.474 136.809 490.533 137.513 490.577 138.1C490.635 138.672 490.679 139.171 490.709 139.596C490.738 140.007 490.76 140.351 490.775 140.63C490.804 140.909 490.819 141.165 490.819 141.4C490.833 141.62 490.841 141.833 490.841 142.038V148H488.003Z" fill="white"></path><path d="M474.253 148V132.6H484.329V135.196H477.069V145.404H484.417V148H474.253ZM475.573 141.4V138.848H483.207V141.4H475.573Z" fill="white"></path><path d="M465.747 148.22C464.633 148.22 463.613 148.029 462.689 147.648C461.765 147.267 460.966 146.724 460.291 146.02C459.617 145.301 459.089 144.458 458.707 143.49C458.341 142.507 458.157 141.437 458.157 140.278C458.157 139.163 458.355 138.129 458.751 137.176C459.147 136.223 459.697 135.387 460.401 134.668C461.105 133.949 461.927 133.392 462.865 132.996C463.804 132.6 464.823 132.402 465.923 132.402C466.671 132.402 467.397 132.512 468.101 132.732C468.805 132.952 469.451 133.26 470.037 133.656C470.624 134.037 471.115 134.485 471.511 134.998L469.685 137C469.304 136.604 468.908 136.274 468.497 136.01C468.101 135.731 467.683 135.526 467.243 135.394C466.818 135.247 466.378 135.174 465.923 135.174C465.249 135.174 464.611 135.299 464.009 135.548C463.423 135.797 462.909 136.149 462.469 136.604C462.044 137.059 461.707 137.601 461.457 138.232C461.208 138.848 461.083 139.537 461.083 140.3C461.083 141.077 461.201 141.781 461.435 142.412C461.685 143.043 462.029 143.585 462.469 144.04C462.924 144.495 463.459 144.847 464.075 145.096C464.706 145.331 465.395 145.448 466.143 145.448C466.627 145.448 467.097 145.382 467.551 145.25C468.006 145.118 468.424 144.935 468.805 144.7C469.201 144.451 469.561 144.165 469.883 143.842L471.291 146.108C470.939 146.504 470.47 146.863 469.883 147.186C469.297 147.509 468.637 147.765 467.903 147.956C467.185 148.132 466.466 148.22 465.747 148.22Z" fill="white"></path><path d="M554.027 126.22C552.868 126.22 551.798 126.022 550.815 125.626C549.832 125.215 548.974 124.651 548.241 123.932C547.522 123.213 546.965 122.377 546.569 121.424C546.173 120.456 545.975 119.407 545.975 118.278C545.975 117.163 546.173 116.129 546.569 115.176C546.98 114.208 547.552 113.372 548.285 112.668C549.018 111.949 549.876 111.392 550.859 110.996C551.856 110.6 552.927 110.402 554.071 110.402C554.878 110.402 555.655 110.512 556.403 110.732C557.151 110.952 557.826 111.26 558.427 111.656C559.028 112.052 559.527 112.499 559.923 112.998L558.119 114.89C557.708 114.494 557.283 114.164 556.843 113.9C556.418 113.636 555.97 113.431 555.501 113.284C555.032 113.137 554.548 113.064 554.049 113.064C553.316 113.064 552.634 113.196 552.003 113.46C551.387 113.724 550.844 114.091 550.375 114.56C549.92 115.029 549.561 115.579 549.297 116.21C549.033 116.841 548.901 117.53 548.901 118.278C548.901 118.997 549.033 119.679 549.297 120.324C549.576 120.969 549.957 121.534 550.441 122.018C550.925 122.502 551.482 122.883 552.113 123.162C552.758 123.426 553.44 123.558 554.159 123.558C554.702 123.558 555.208 123.477 555.677 123.316C556.146 123.155 556.564 122.935 556.931 122.656C557.298 122.363 557.576 122.025 557.767 121.644C557.972 121.263 558.075 120.852 558.075 120.412V119.928L558.471 120.39H553.917V117.838H560.891C560.92 117.999 560.942 118.183 560.957 118.388C560.972 118.579 560.979 118.769 560.979 118.96C560.994 119.136 561.001 119.29 561.001 119.422C561.001 120.434 560.825 121.358 560.473 122.194C560.121 123.015 559.622 123.727 558.977 124.328C558.346 124.929 557.606 125.399 556.755 125.736C555.919 126.059 555.01 126.22 554.027 126.22Z" fill="white"></path><path d="M529.478 126V110.6H532.052L540.984 122.634L540.5 122.722C540.441 122.311 540.39 121.893 540.346 121.468C540.302 121.028 540.258 120.573 540.214 120.104C540.185 119.635 540.155 119.143 540.126 118.63C540.111 118.117 540.097 117.581 540.082 117.024C540.067 116.452 540.06 115.851 540.06 115.22V110.6H542.898V126H540.28L531.304 114.142L531.876 113.988C531.949 114.809 532.008 115.513 532.052 116.1C532.111 116.672 532.155 117.171 532.184 117.596C532.213 118.007 532.235 118.351 532.25 118.63C532.279 118.909 532.294 119.165 532.294 119.4C532.309 119.62 532.316 119.833 532.316 120.038V126H529.478Z" fill="white"></path><path d="M517.909 126V123.47H520.439V113.13H517.909V110.6H525.829V113.13H523.299V123.47H525.829V126H517.909Z" fill="white"></path><path d="M500.818 126V110.6H503.392L512.324 122.634L511.84 122.722C511.781 122.311 511.73 121.893 511.686 121.468C511.642 121.028 511.598 120.573 511.554 120.104C511.525 119.635 511.495 119.143 511.466 118.63C511.451 118.117 511.437 117.581 511.422 117.024C511.407 116.452 511.4 115.851 511.4 115.22V110.6H514.238V126H511.62L502.644 114.142L503.216 113.988C503.289 114.809 503.348 115.513 503.392 116.1C503.451 116.672 503.495 117.171 503.524 117.596C503.553 118.007 503.575 118.351 503.59 118.63C503.619 118.909 503.634 119.165 503.634 119.4C503.649 119.62 503.656 119.833 503.656 120.038V126H500.818Z" fill="white"></path><path d="M485.478 126V110.6H492.166C493.09 110.6 493.933 110.82 494.696 111.26C495.459 111.685 496.06 112.272 496.5 113.02C496.955 113.753 497.182 114.582 497.182 115.506C497.182 116.386 496.955 117.2 496.5 117.948C496.06 118.681 495.459 119.268 494.696 119.708C493.948 120.133 493.105 120.346 492.166 120.346H488.272V126H485.478ZM494.41 126L490.494 119.048L493.442 118.498L497.798 126.022L494.41 126ZM488.272 117.86H492.188C492.613 117.86 492.98 117.765 493.288 117.574C493.611 117.369 493.86 117.09 494.036 116.738C494.212 116.386 494.3 115.997 494.3 115.572C494.3 115.088 494.19 114.67 493.97 114.318C493.75 113.966 493.442 113.687 493.046 113.482C492.65 113.277 492.195 113.174 491.682 113.174H488.272V117.86Z" fill="white"></path><path d="M468.401 126L474.407 110.6H477.091L483.053 126H480.083L476.783 117.244C476.71 117.068 476.607 116.789 476.475 116.408C476.358 116.027 476.226 115.616 476.079 115.176C475.932 114.721 475.8 114.303 475.683 113.922C475.566 113.526 475.478 113.24 475.419 113.064L475.969 113.042C475.881 113.335 475.778 113.665 475.661 114.032C475.544 114.399 475.419 114.78 475.287 115.176C475.155 115.572 475.023 115.953 474.891 116.32C474.774 116.687 474.664 117.017 474.561 117.31L471.261 126H468.401ZM471.129 122.48L472.119 119.994H479.137L480.193 122.48H471.129Z" fill="white"></path><path d="M456.367 126V110.6H466.443V113.196H459.183V123.404H466.531V126H456.367ZM457.687 119.4V116.848H465.321V119.4H457.687Z" fill="white"></path><path d="M443.132 126V110.6H445.992V123.36H453.098V126H443.132Z" fill="white"></path></g><defs><linearGradient id="paint0_linear_774_1093" x1="398.32" y1="0.0698942" x2="596.5" y2="189.67" gradientUnits="userSpaceOnUse"><stop offset="0.14" stop-color="#BB11FF"></stop><stop offset="0.91" stop-color="#8438FA"></stop></linearGradient><linearGradient id="paint1_linear_774_1093" x1="0.870278" y1="93.9198" x2="417.03" y2="93.9198" gradientUnits="userSpaceOnUse"><stop offset="0.14" stop-color="#A82FFA"></stop><stop offset="0.91" stop-color="#8438FA"></stop></linearGradient><linearGradient id="paint2_linear_774_1093" x1="576.57" y1="97.0699" x2="995" y2="97.0699" gradientUnits="userSpaceOnUse"><stop offset="0.17" stop-color="#8438FA"></stop><stop offset="0.84" stop-color="#A82FFA"></stop></linearGradient><clipPath id="clip0_774_1093"><rect width="995" height="191" fill="white"></rect></clipPath></defs></svg>