<svg width="204" height="84" viewBox="0 0 204 84" fill="none" xmlns="http://www.w3.org/2000/svg">
<rect width="204" height="83.6923" rx="9.2878" fill="white"/>
<g clip-path="url(#clip0_872_12230)">
<path d="M63.6418 16.5632C64.2943 17.2202 64.4808 18.1588 64.8536 19.0036C63.735 20.5054 61.964 21.1625 60.3793 22.1011C59.9132 22.2888 59.6336 22.5704 59.1675 22.852C58.515 22.5704 57.3032 22.1949 57.3032 21.1625C56.8372 20.4116 56.3711 19.6607 56.3711 18.8159C57.5829 17.3141 59.7268 17.6895 61.0318 16.2816C61.6843 16.2816 62.2436 15.7184 62.8961 16.1877C63.0825 16.3755 63.269 16.5632 63.6418 16.5632Z" fill="#231F20"/>
<path d="M58.7965 25.48C60.0083 25.2923 61.5929 24.7291 62.5251 25.8554C62.8979 26.0432 62.8047 26.5125 62.8979 26.7941C62.8047 26.9818 62.7115 27.545 62.2454 27.6388C61.7794 27.545 61.2201 28.0143 60.6608 28.2959C60.9404 28.3897 61.4997 28.7652 61.5929 29.1406C61.9658 29.7038 61.5929 30.3609 61.5929 30.924C61.2201 32.0504 59.5422 31.8627 59.7286 33.3645C57.9576 34.0215 56.839 35.8049 54.8815 35.9926C53.7629 36.9313 52.3647 37.776 51.4325 38.9962C51.0597 35.5233 53.4833 32.2381 56.3729 30.7363C56.1865 29.9854 54.9747 29.61 54.9747 28.6713C54.5086 28.1081 54.1358 27.2634 54.1358 26.6063C55.3475 25.6677 56.4661 24.4475 58.144 24.9168C58.2372 25.1045 58.6101 25.1045 58.7965 25.48Z" fill="#231F20"/>
<path d="M69.7931 35.1482C69.7931 35.0543 69.6066 34.8666 69.5134 34.7728C69.1406 34.8666 68.8609 34.585 68.5813 34.8666C68.3948 34.2096 67.3695 34.6789 67.0898 34.1157C68.2084 33.7403 69.2338 34.3973 69.7931 35.1482Z" fill="#88714C"/>
<path d="M68.3042 35.3355L68.4906 35.0539L68.2109 34.8662L68.3042 35.3355Z" fill="#88714C"/>
<path d="M70.1676 35.4297C70.0744 35.899 69.7947 36.0867 69.4219 36.2745L69.7947 35.6174C69.7947 35.7113 69.8879 35.7113 69.8879 35.7113C70.0744 35.7113 70.1676 35.4297 70.1676 35.4297Z" fill="#88714C"/>
<path d="M68.8632 35.5235C68.77 35.6174 68.5836 35.8051 68.6768 35.9928C68.8632 35.899 69.2361 36.1806 69.2361 36.4622C69.2361 36.556 69.1429 36.556 69.1429 36.6499C69.1429 36.4622 68.9564 36.2744 68.77 36.3683L68.6768 36.4622C68.6768 36.8376 68.77 36.2744 68.5836 36.2744C67.6514 36.3683 68.3039 37.3069 67.3718 37.4008C67.3718 37.1192 67.5582 37.0253 67.7446 36.9315C67.465 36.2744 67.0921 37.0253 66.8125 36.9315L67.1854 36.556L67.0921 36.4622C67.1854 36.4622 67.7446 36.556 67.8379 36.0867C68.0243 36.556 68.3971 35.9928 68.5836 35.899C68.5836 35.7113 68.5836 35.4297 68.8632 35.5235Z" fill="#88714C"/>
<path d="M66.1589 37.2129C66.0657 37.119 66.0657 36.9313 66.2521 36.8374C66.1589 36.9313 66.0657 37.119 66.1589 37.2129Z" fill="#88714C"/>
<path d="M59.3552 39.5598C58.8892 39.5598 58.4231 39.5598 58.1435 39.9352L57.957 39.8414C58.0502 39.4659 58.8892 39.6537 59.262 39.3721V39.5598H59.3552Z" fill="#88714C"/>
<path d="M56.744 41.9062C56.6507 42.094 56.4643 42.094 56.3711 42.094C56.3711 42.0001 56.6507 41.9062 56.744 41.9062Z" fill="#88714C"/>
<path d="M52.0822 42.6571C51.8958 42.6571 51.6161 42.7509 51.4297 42.5632C51.6161 42.3755 51.8958 42.5632 52.0822 42.3755V42.6571Z" fill="#88714C"/>
<path d="M47.6084 43.3141H47.888C48.0744 43.2202 48.0744 43.1264 48.1676 42.9387C47.888 42.9387 47.7016 43.1264 47.6084 43.3141ZM48.3541 42.6571H48.0744L48.3541 42.8448V42.6571ZM50.498 33.3646C49.9387 35.3358 48.1676 34.7726 46.7694 35.6174C46.8626 35.7112 46.3033 35.8051 45.8373 35.8989L45.4644 36.0867C43.973 36.2744 42.9476 37.3069 41.5494 37.9639C41.6426 38.621 40.8037 38.2455 40.4308 38.621C40.3376 39.0903 39.4055 38.9026 39.5919 39.5596C38.9394 40.0289 38.1005 40.4982 37.8208 41.1553C38.5665 41.8123 39.5919 41.7184 40.4308 41.9062C43.2273 42.1878 45.6508 41.8123 48.2609 41.8123C49.0066 41.7184 49.7523 41.4368 50.5912 41.4368V41.5307C51.1505 41.7184 51.5234 41.0614 52.1759 41.343C52.5487 40.8737 53.3877 41.2491 53.8537 40.6859C54.6927 40.4044 55.9044 40.5921 56.4637 40.2166V40.3105C56.1841 40.2166 56.2773 40.4982 56.0909 40.6859C56.2773 40.7798 56.4637 40.7798 56.7434 40.7798C57.6755 39.8412 58.4212 41.0614 59.2602 39.935C59.633 39.4657 60.1923 39.278 60.7516 39.0903L60.938 39.3719C61.2177 38.5271 62.1498 38.8087 62.6159 38.4332C62.243 38.5271 62.243 39.0903 61.6837 38.8087C62.0566 39.4657 61.1245 39.4657 60.938 39.8412C60.7516 39.935 60.2855 39.8412 60.2855 39.4657C60.0991 39.6535 60.0991 40.4044 59.633 40.1228C59.0737 40.2166 58.328 40.4982 57.6755 40.7798C57.023 40.8737 56.0909 41.2491 55.3452 41.0614C54.6927 41.4368 54.1334 41.343 53.3877 41.6246C52.4555 41.8123 51.1505 41.7184 50.4048 42.2816C50.1251 42.2816 50.2184 42.7509 50.0319 42.7509C50.3116 42.7509 50.2184 43.5018 50.6844 43.1264C50.498 43.1264 50.3116 43.408 50.2184 43.1264C49.8455 43.2202 49.4726 43.6896 49.0998 43.3141C48.5405 43.5957 47.7948 43.408 47.1423 43.5018V43.3141C47.5151 43.6896 47.4219 42.9387 47.7948 42.8448V42.5632C46.7694 43.0325 45.5576 42.8448 44.3458 43.3141C44.7187 43.9711 43.6933 43.5018 43.5069 43.6896C43.5069 43.5957 43.6933 43.5957 43.6933 43.5018C42.2019 43.0325 41.5494 43.9711 39.9648 43.5957L39.5919 44.065C38.9394 43.6896 38.0073 44.4405 37.2615 43.9711C36.5158 43.8773 35.4905 43.5957 35.2108 42.8448C34.9312 42.9387 34.838 42.7509 34.838 42.4693C34.9312 41.7184 33.6262 41.4368 34.1855 40.5921C33.8126 40.1228 34.2787 39.5596 34.3719 39.0903C34.4651 38.9964 34.4651 38.9026 34.4651 38.7148L34.6515 38.9026C35.0244 38.621 35.0244 38.2455 35.2108 37.8701L36.2362 36.7437C36.143 36.8376 36.2362 36.9314 36.3294 36.9314C36.4226 36.9314 36.5158 36.7437 36.7023 36.7437C36.609 36.3683 36.7955 36.2744 37.0751 36.0867C37.2615 35.9928 37.5412 36.1805 37.6344 35.8989C37.448 35.3358 38.2869 35.8989 38.2869 35.2419C39.0326 35.3358 39.219 34.3971 39.9648 34.5849C40.9901 33.5524 42.4816 33.4585 43.6933 32.6137C45.7441 31.9567 49.193 30.361 50.498 33.3646Z" fill="#88714C"/>
<path d="M43.2289 43.7833C43.1356 43.9711 43.0424 43.8772 42.9492 43.8772V43.6895C43.0424 43.6895 43.1356 43.5956 43.2289 43.7833Z" fill="#88714C"/>
<path d="M65.508 37.2131C65.3215 37.4008 65.1351 37.5885 64.9487 37.4008H64.8555C65.0419 37.3069 65.2283 37.1192 65.508 37.2131Z" fill="#88714C"/>
<path d="M52.3615 48.5702C52.6411 50.2598 51.8022 51.7616 50.8701 53.0757L50.4972 53.1695L50.5904 53.0757L50.4972 52.9818C49.7515 53.9204 48.8193 54.7652 48.6329 55.9854C48.4465 56.0793 48.3533 56.0793 48.26 56.1731C48.0736 55.5161 47.6075 54.5775 47.9804 53.8266C47.8872 51.7616 48.8193 50.1659 49.7515 48.3825C50.404 48.0071 50.9633 46.8807 51.709 47.4439L52.3615 48.5702Z" fill="#231F20"/>
<path d="M48.354 62.2745C48.6337 62.8376 48.5405 63.4008 48.4473 63.964C48.0744 64.0578 47.6083 63.964 47.2355 63.7763L47.1422 63.8701C46.6762 63.5885 46.2101 63.2131 46.2101 62.6499C46.0237 61.899 47.049 61.9929 47.1422 61.4297C47.5151 61.5236 47.9812 61.899 48.354 62.2745Z" fill="#231F20"/>
<path d="M74.6405 54.1084V57.3936C73.8015 57.863 70.539 58.0507 69.7001 58.0507C65.1326 58.0507 63.7344 55.7041 63.7344 51.3864C63.7344 46.881 65.5987 44.7222 70.1662 44.7222C71.844 44.7222 73.0558 45.0038 74.7337 45.4731V48.3828H73.7083V47.9135C73.4287 45.8485 72.4965 45.3792 70.2594 45.3792C66.8105 45.3792 65.7851 47.9135 65.7851 51.011C65.7851 54.39 66.3444 57.3936 70.3526 57.3936C73.2423 57.3936 73.5219 56.6427 73.8015 54.0146H74.6405V54.1084Z" fill="#231F20"/>
<path d="M81.4463 51.5739C81.4463 54.7653 82.192 57.5811 85.9206 57.5811C89.6492 57.5811 90.3949 54.6714 90.3949 51.5739C90.3949 48.3826 89.7424 45.5667 85.9206 45.5667C82.192 45.6606 81.4463 48.4765 81.4463 51.5739ZM79.582 51.5739C79.582 46.8808 81.0735 44.9097 85.9206 44.9097C90.7678 44.9097 92.2592 46.8808 92.2592 51.5739C92.2592 56.2671 91.0474 58.2382 85.9206 58.2382C81.0735 58.2382 79.582 56.2671 79.582 51.5739Z" fill="#231F20"/>
<path d="M108.385 47.0688L103.911 57.9569C103.818 58.1446 103.631 58.1446 103.538 58.0507L98.9705 47.3504V56.0796C98.9705 57.2998 99.2501 57.2998 100.462 57.2998V57.9569H98.5044H96.5469V57.2998C97.7587 57.2998 98.0383 57.206 98.0383 56.0796V46.9749C98.0383 45.7547 97.6654 45.7547 96.5469 45.7547V45.0977H98.0383H99.5297L104.097 55.4226L108.478 45.0977H109.97H111.461V45.7547C110.249 45.7547 109.97 45.7547 109.97 46.9749V56.0796C109.97 57.2998 110.249 57.2998 111.461 57.2998V57.9569H109.131H106.8V57.2998C108.105 57.2998 108.385 57.206 108.385 56.0796V47.0688Z" fill="#231F20"/>
<path d="M120.222 51.5738H121.155C123.485 51.5738 125.07 51.48 125.07 48.6641C125.07 45.942 124.137 45.7543 122.087 45.7543H120.316V51.5738H120.222ZM120.222 56.0792C120.222 57.0179 120.129 57.2994 121.993 57.2994V57.9565C121.155 57.9565 120.222 57.9565 119.383 57.8626C118.451 57.9565 117.612 57.9565 116.773 57.9565V57.2994C118.545 57.2994 118.545 57.0179 118.545 56.0792V46.9745C118.545 45.942 118.545 45.6605 116.773 45.6605V45.0034C117.706 45.0973 118.545 45.0973 119.383 45.0973C120.595 45.0973 121.9 45.0973 123.205 45.0034C125.536 45.0034 126.841 45.6605 126.841 48.2886C126.841 51.7615 124.883 52.2309 121.9 52.2309H120.222V56.0792Z" fill="#231F20"/>
<path d="M138.026 51.5742L136.162 46.7872L134.111 51.7619H138.119L138.026 51.5742ZM137.28 45.0977L141.195 55.3287C141.382 55.8919 141.848 57.4875 143.339 57.3937V58.0507H140.822H138.212V57.3937C138.212 57.3937 139.797 57.3937 139.797 56.6428C139.797 56.2673 139.704 55.9857 139.517 55.7042L138.306 52.5128H133.831L132.62 55.7042C132.526 55.9857 132.526 56.2673 132.526 56.5489C132.526 57.3937 133.459 57.3937 134.018 57.3937V58.0507H131.874H129.637V57.3937C130.289 57.2998 130.569 57.3937 131.035 56.8305C131.315 56.5489 131.781 55.2348 131.967 54.8594L135.975 45.0977H137.28Z" fill="#231F20"/>
<path d="M152.568 50.7294C154.339 51.3864 155.924 52.2312 155.924 54.2962C155.924 57.3936 153.407 58.1446 150.797 58.1446C149.492 58.1446 148.094 57.9568 146.789 57.3936V54.0146H148.001C148.187 55.798 147.721 57.4875 150.984 57.4875C152.662 57.4875 154.153 56.7366 154.153 54.8594C154.153 52.7944 152.102 52.3251 150.518 51.7619C148.747 51.1048 147.255 50.5417 147.255 48.289C147.255 45.8485 149.306 44.7222 151.543 44.7222C152.755 44.7222 153.967 44.9099 155.272 45.3792V48.4767H154.246C154.153 46.9749 154.433 45.3792 151.636 45.3792C150.145 45.3792 148.933 46.0362 148.933 47.7258C148.933 48.8521 149.492 49.4153 150.424 49.7908L152.568 50.7294Z" fill="#231F20"/>
<path d="M166.643 50.5414C168.414 51.1984 169.998 51.9493 169.998 54.1082C169.998 57.2057 167.482 57.9566 164.871 57.9566C163.566 57.9566 162.168 57.7688 160.863 57.2057V53.8266H162.075C162.261 55.61 161.795 57.2995 165.058 57.2995C166.736 57.2995 168.227 56.5486 168.227 54.6714C168.227 52.6064 166.177 52.1371 164.592 51.5739C162.821 50.9169 161.329 50.3537 161.329 48.101C161.329 45.5667 163.38 44.5342 165.617 44.5342C166.829 44.5342 168.041 44.7219 169.346 45.1912V48.2887H168.32C168.227 46.7869 168.507 45.1912 165.71 45.1912C164.219 45.1912 163.007 45.8483 163.007 47.5378C163.007 48.5703 163.566 49.2273 164.499 49.6028L166.643 50.5414Z" fill="#231F20"/>
<path d="M96.7325 66.6859C96.7325 66.3104 96.7325 66.2166 95.8936 66.2166V65.935C96.3596 66.0289 96.7325 66.0289 97.1053 66.0289C97.4782 66.0289 97.7578 66.0289 98.0375 65.935V66.2166C97.385 66.2166 97.385 66.3104 97.385 66.6859V67.3429V67.6245C96.7325 67.8122 96.08 68 95.4275 68C93.6564 68 93.0039 67.0613 93.0039 65.3718C93.0039 63.5884 93.7496 62.7437 95.6139 62.7437C96.2664 62.7437 96.8257 62.8375 97.385 63.0252V64.2455H97.0121C96.9189 63.213 96.6393 63.0252 95.6139 63.0252C94.1225 63.0252 93.8428 64.2455 93.8428 65.4657C93.8428 66.8736 94.2157 67.8122 95.7071 67.8122C95.9868 67.8122 96.3596 67.7184 96.7325 67.5307V66.6859Z" fill="#231F20"/>
<path d="M105.496 65.184H105.869C106.614 65.184 107.36 65.184 107.36 64.1515C107.36 63.4006 106.987 63.2129 106.242 63.2129H105.496V65.184ZM105.496 67.1551C105.496 67.5305 105.403 67.7183 106.148 67.7183V67.906H105.123H104.098V67.7183C104.75 67.7183 104.75 67.5305 104.75 67.1551V63.5883C104.75 63.2129 104.75 63.119 104.098 63.119V62.8374H105.123H106.521C107.453 62.8374 108.013 62.9313 108.013 63.9638C108.013 64.9024 107.547 65.184 106.801 65.2778C106.987 65.6533 107.826 66.9674 108.013 67.249C108.199 67.4367 108.386 67.7183 108.758 67.7183V67.906H108.199H107.64C107.174 67.1551 106.148 65.4656 105.869 65.3717C105.682 65.2778 105.496 65.2778 105.403 65.2778V67.1551H105.496Z" fill="#231F20"/>
<path d="M115.843 65.3718C115.843 66.592 116.122 67.7184 117.614 67.7184C119.105 67.7184 119.385 66.592 119.385 65.3718C119.385 64.1516 119.105 63.0252 117.614 63.0252C116.029 62.9314 115.843 64.1516 115.843 65.3718ZM115.004 65.3718C115.004 63.5884 115.656 62.7437 117.521 62.7437C119.478 62.7437 120.037 63.4946 120.037 65.3718C120.037 67.2491 119.571 68 117.521 68C115.656 68 115.004 67.2491 115.004 65.3718Z" fill="#231F20"/>
<path d="M127.868 66.3107C127.868 67.2493 128.241 67.8125 129.266 67.8125C130.385 67.8125 130.851 67.4371 130.851 66.3107V63.6825C130.851 63.2132 130.851 63.2132 130.105 63.2132V62.9316H131.037H131.969V63.2132C131.317 63.2132 131.317 63.3071 131.317 63.6825V66.2168C131.317 67.7186 130.571 68.0941 129.173 68.0941C127.961 68.0941 127.309 67.6248 127.309 66.4046V63.6825C127.309 63.2132 127.402 63.2132 126.656 63.2132V62.9316H127.588H128.614V63.2132C127.961 63.2132 127.961 63.3071 127.961 63.6825V66.3107H127.868Z" fill="#231F20"/>
<path d="M139.426 65.4656H139.798C140.731 65.4656 141.29 65.3717 141.29 64.2453C141.29 63.2129 140.917 63.119 140.078 63.119H139.426V65.4656ZM139.426 67.1551C139.426 67.5305 139.426 67.7183 140.078 67.7183V67.906H139.053H138.027V67.7183C138.68 67.7183 138.68 67.5305 138.68 67.1551V63.5883C138.68 63.2129 138.68 63.119 138.027 63.119V62.8374H139.053H140.544C141.476 62.8374 142.036 63.119 142.036 64.0576C142.036 65.4656 141.197 65.6533 139.985 65.6533H139.332V67.1551H139.426Z" fill="#231F20"/>
<path d="M63.1759 39.1839C62.9895 39.1839 62.8031 39.2778 62.5234 39.0901C62.7099 38.9023 62.9895 39.0901 63.1759 38.9023V39.1839Z" fill="#88714C"/>
<path d="M64.387 37.9641C64.0142 37.9641 63.5481 37.9641 63.1752 38.3395L63.082 38.2457C63.1752 37.8702 64.0142 38.058 64.2938 37.7764V37.9641H64.387Z" fill="#88714C"/>
<path d="M66.0671 37.9641C65.8807 37.8702 65.6942 38.058 65.5078 37.8702C65.601 37.7764 65.8807 37.9641 66.0671 37.7764V37.9641Z" fill="#88714C"/>
<path d="M64.9487 38.3394L65.0419 37.964L64.8555 37.8701L64.9487 38.3394Z" fill="#88714C"/>
</g>
<defs>
<clipPath id="clip0_872_12230">
<rect width="136" height="52" fill="white" transform="translate(34 16)"/>
</clipPath>
</defs>
</svg>
