<svg width="204" height="84" viewBox="0 0 204 84" fill="none" xmlns="http://www.w3.org/2000/svg">
<rect width="204" height="83.6923" rx="9.2878" fill="white"/>
<path d="M108.832 23.8116L108.758 23.737L107.424 22.3938L105.941 23.8863L107.424 25.3787L108.832 23.8116Z" fill="#BD8B13"/>
<path d="M111.797 23.8116L111.574 23.737L110.24 22.3938L108.758 23.8863L110.24 25.3787L111.797 23.8116Z" fill="#BD8B13"/>
<path d="M91.6378 23.5131C91.6378 23.8115 91.9343 23.9608 92.1567 24.0354C92.4531 24.11 92.7496 24.3339 92.7496 24.7816V36.2735H105.35V36.7959C105.35 37.766 105.646 38.363 106.165 38.5868C106.165 38.5868 106.462 38.8107 106.906 38.8107C107.203 38.8107 107.499 38.7361 107.87 38.5122L108.092 38.4376L107.87 38.2137C107.573 37.9152 107.351 37.0198 107.351 36.4974V36.4228H112.02V25.8264C112.02 25.8264 111.427 27.1696 109.13 28.8859C109.13 28.8859 109.204 29.3336 109.649 29.5575C110.242 29.856 110.167 30.2291 110.167 30.2291V34.4826H107.277V34.0349C107.277 32.9901 106.98 30.453 104.164 30.453H101.57C99.9391 30.453 99.0497 30.2291 98.7532 29.7814L98.6791 29.5575L98.605 29.6321C98.3085 29.856 98.0861 30.2291 98.0861 30.6768C98.0861 31.3484 98.5309 32.1693 99.1238 32.1693H102.978C105.276 32.1693 105.35 33.214 105.35 33.6617V34.1841H94.6026V20.155C94.6026 20.155 93.3425 21.8714 91.5637 23.1399V23.5131H91.6378ZM84.3001 37.9899C84.3001 37.9899 84.0777 39.7062 87.5613 39.7062C90.3778 39.7062 90.4519 37.9152 90.4519 37.9152V31.3484C90.4519 30.9007 90.3778 29.7814 89.1919 29.7814H79.4083V29.0351C79.4083 28.8113 79.4824 28.8113 79.7047 28.7366C80.2236 28.4382 80.2977 28.065 80.2236 27.9158C79.1118 27.2442 78 25.7517 78 25.7517V31.4977H87.8578C88.1542 31.4977 88.599 31.5723 88.599 32.2439V36.8705C88.599 36.8705 88.599 37.8406 87.6354 37.8406C86.0789 37.8406 86.153 37.0198 86.153 37.0198V34.4826H78V36.4974H84.4483V37.9899H84.3001ZM125.288 24.7816C125.288 24.2593 125.584 24.11 125.806 24.0354C126.029 23.9608 126.251 23.8115 126.325 23.3638V23.2892C126.325 23.0653 126.251 23.0653 126.029 22.9907C125.806 22.9161 125.51 22.6922 124.917 22.1698C123.879 21.349 123.657 20.9013 123.657 20.9013L123.361 20.3789V36.4228H125.362C125.288 36.3482 125.288 25.0801 125.288 24.7816ZM118.617 38.4376L117.283 39.7808L115.949 38.4376L117.283 37.0944L118.617 38.4376ZM114.096 38.4376L117.357 41.721L120.618 38.4376L118.617 36.4228L120.989 33.8856V20.3789C120.989 20.3789 120.025 22.3937 118.469 23.4384V23.5131C118.469 23.8115 118.691 23.9608 118.913 24.0354C119.136 24.11 119.358 24.3339 119.358 24.7816V32.9155L117.357 35.0049L115.356 32.9155V24.7816C115.356 24.2593 115.578 24.11 115.8 24.0354C116.023 23.9608 116.097 23.8115 116.245 23.5131V23.4384C114.763 22.3937 113.725 20.3789 113.725 20.3789V34.1095L116.097 36.572L114.096 38.4376ZM108.389 45.5268L108.907 45.8252C108.982 45.8999 108.982 45.8999 108.982 46.0491V50.3026H99.9391L97.8638 52.9144V45.9745L97.9379 45.8999L98.3826 45.6014V45.1536H93.7873V45.6014L94.232 45.8999L94.3061 45.9745V58.8096L94.232 58.8842L93.7873 59.1827V59.6304H98.3826V59.1827L97.8638 58.8842L97.7897 58.8096V53.0636L98.3085 53.1383L98.9014 52.8398L99.1979 52.7652H108.907V57.2425L112.317 53.5114V46.1984L112.391 46.1237L112.91 45.8999V45.4521H108.389V45.5268ZM157.381 50.6757C156.862 48.9594 155.602 47.6162 153.749 46.5715C152.119 45.6014 149.673 45.2283 146.486 45.2283H134.108V45.676L134.627 45.9745V47.4669H146.411C148.783 47.4669 150.562 47.7654 151.6 48.437C153.23 49.4071 154.12 50.7503 154.12 52.3174C154.12 53.1383 153.897 53.8845 153.527 54.6307C153.082 55.3023 152.415 55.8993 151.526 56.347C150.414 57.0186 148.635 57.3171 146.337 57.3171H140.185V48.437H136.85V58.5857L136.776 58.6603L136.331 58.8842V59.332H146.411C148.413 59.332 149.821 59.2573 151.007 59.0335C152.489 58.735 153.823 58.2126 154.861 57.4664C155.973 56.7202 156.862 55.7501 157.233 54.8546C157.529 54.1084 157.752 53.3621 157.752 52.5413C157.603 51.8697 157.455 51.1981 157.381 50.6757ZM119.358 47.7654L108.314 59.332H113.429V58.8096H112.762L121.211 49.8549L119.358 47.7654Z" fill="#BD8B13"/>
<path d="M130.476 58.9588V59.4811H135.442L122.101 45.2282L120.1 47.3176L122.323 49.6309L124.621 51.9442H120.767L118.692 54.1829L119.136 54.4814L119.655 54.1829H126.474L130.921 59.0334C130.921 59.0334 130.847 59.108 130.476 59.108H130.402V58.9588H130.476ZM91.8606 45.8252L92.3053 45.5267V45.0789H87.8582V45.5267L88.3029 45.8252L88.5252 46.049V58.6603L88.4511 58.7349L87.9323 58.9588V59.4065H92.3794V58.9588L91.9347 58.7349L91.8606 58.6603V45.9744V45.8252ZM69.5509 56.6455H68.8097L68.2167 56.9439C68.1426 57.0186 67.9944 57.0186 67.9203 57.0186H57.766C55.4683 57.0186 53.6895 56.7201 52.5777 56.0485C50.7989 55.0784 49.9836 53.8098 49.9836 52.0188C49.9836 51.2726 50.2059 50.4518 50.7248 49.7802C51.5401 48.5116 52.8001 47.5415 54.653 47.243C55.1719 47.1684 55.6166 47.1684 55.9131 47.1684H61.1014C61.3978 47.1684 61.3978 47.243 61.3978 47.243L61.3237 47.6907H61.6943L63.9179 44.9297H57.6919C56.2095 44.9297 55.0978 44.9297 54.3566 45.0043C53.9119 45.0043 53.5413 45.0789 53.2448 45.2282C52.2071 45.452 51.2436 45.8998 50.3542 46.4221C48.7236 47.3176 47.6118 48.437 47.0188 49.7055C46.7224 50.4518 46.5 51.2726 46.5 52.2427C46.5 54.556 47.76 56.347 50.1318 57.7648C51.1695 58.4364 52.4295 58.8095 53.7636 59.0334C54.8013 59.2572 56.1354 59.2572 57.8401 59.2572H67.2532L69.5509 56.6455Z" fill="#BD8B13"/>
<path d="M64.4342 53.2129L66.6578 50.4519H51.9082L50.4258 52.6906H63.693C63.9154 52.6906 63.9895 52.7652 63.9895 52.7652L63.9154 53.2129H64.4342Z" fill="#BD8B13"/>
<path d="M65.548 45.0791L63.4727 47.6909L63.9174 47.7655H63.9915L64.5844 47.467C64.8068 47.3924 64.8809 47.2432 65.1033 47.2432H73.2563V58.4366L73.1822 58.5112L72.7375 58.8097V59.2574H77.3328V58.8097L76.8881 58.5112L76.814 58.4366V47.3178H84.0035C84.3 47.3178 84.3 47.3924 84.3 47.3924V47.8401H84.7447L86.9683 45.0791H65.548Z" fill="#BD8B13"/>
</svg>
