<svg width="204" height="84" viewBox="0 0 204 84" fill="none" xmlns="http://www.w3.org/2000/svg">
<rect width="204" height="83.6923" rx="9.2878" fill="white"/>
<g clip-path="url(#clip0_48_41193)">
<path d="M36.2254 24.0185C34.7154 22.2231 33.4152 20.3997 33.1496 20.021C33.1216 19.993 33.0797 19.993 33.0517 20.021C32.7861 20.3997 31.4858 22.2231 29.9759 24.0185C17.0156 40.5832 32.0171 51.762 32.0171 51.762L32.1429 51.8462C32.2548 53.5713 32.5344 56.054 32.5344 56.054H33.0936H33.6529C33.6529 56.054 33.9325 53.5853 34.0444 51.8462L34.1702 51.748C34.1842 51.762 49.1858 40.5832 36.2254 24.0185ZM33.0936 51.5095C33.0936 51.5095 32.4226 50.9344 32.2408 50.64V50.6118L33.0517 32.5744C33.0517 32.5182 33.1356 32.5182 33.1356 32.5744L33.9465 50.6118V50.64C33.7647 50.9344 33.0936 51.5095 33.0936 51.5095Z" fill="#001E2B"/>
<path d="M61.1676 47.8287L54.9163 32.5279L54.9023 32.4856H50.0386V33.5141H50.8235C51.0617 33.5141 51.286 33.6127 51.4543 33.7818C51.6224 33.9509 51.7065 34.1763 51.7065 34.4158L51.5664 49.8153C51.5664 50.2943 51.174 50.6888 50.6973 50.7029L49.8984 50.717V51.7314H54.636V50.717L54.1454 50.7029C53.6689 50.6888 53.2763 50.2943 53.2763 49.8153V35.3034L60.0884 51.7314C60.1864 51.9709 60.4107 52.1259 60.6631 52.1259C60.9153 52.1259 61.1396 51.9709 61.2377 51.7314L67.8956 35.6697L67.9937 49.8153C67.9937 50.3085 67.6012 50.7029 67.1106 50.717H66.606V51.7314H72.1565V50.717H71.3996C70.9231 50.717 70.5306 50.3085 70.5166 49.8294L70.4746 34.4298C70.4746 33.9368 70.8669 33.5423 71.3436 33.5282L72.1565 33.5141V32.4856H67.4189L61.1676 47.8287Z" fill="#001E2B"/>
<path d="M104.756 50.4489C104.602 50.2938 104.517 50.0821 104.517 49.828V42.2631C104.517 40.8236 104.096 39.6944 103.253 38.89C102.424 38.0855 101.271 37.6763 99.838 37.6763C97.8283 37.6763 96.2404 38.4948 95.1302 40.1038C95.1162 40.132 95.074 40.1462 95.0319 40.1462C94.9896 40.1462 94.9616 40.1178 94.9616 40.0756L94.4416 38.0573H93.5703L91.3359 39.3416V40.0473H91.9121C92.1791 40.0473 92.4039 40.1178 92.5586 40.2591C92.7131 40.4002 92.7974 40.6119 92.7974 40.9082V49.8138C92.7974 50.0679 92.7131 50.2796 92.5586 50.4349C92.4039 50.59 92.1932 50.6748 91.9403 50.6748H91.3781V51.705H96.5214V50.6748H95.9593C95.7064 50.6748 95.4955 50.59 95.341 50.4349C95.1864 50.2796 95.102 50.0679 95.102 49.8138V43.9144C95.102 43.1664 95.2707 42.4184 95.5799 41.6844C95.903 40.9648 96.3808 40.3579 97.0133 39.8921C97.6456 39.4264 98.4045 39.2005 99.2758 39.2005C100.259 39.2005 101.004 39.511 101.468 40.132C101.932 40.7531 102.171 41.5575 102.171 42.5172V49.7998C102.171 50.0537 102.086 50.2654 101.932 50.4207C101.777 50.576 101.566 50.6606 101.313 50.6606H100.751V51.6909H105.895V50.6606H105.333C105.122 50.6889 104.925 50.6042 104.756 50.4489Z" fill="#001E2B"/>
<path d="M151.746 33.6376C150.324 32.879 148.735 32.4856 147.02 32.4856H140.33V33.5112H140.985C141.236 33.5112 141.459 33.6095 141.682 33.8343C141.891 34.045 142.003 34.2839 142.003 34.5367V49.6539C142.003 49.9067 141.891 50.1456 141.682 50.3563C141.473 50.567 141.236 50.6794 140.985 50.6794H140.33V51.705H147.02C148.735 51.705 150.324 51.3116 151.746 50.553C153.167 49.7943 154.324 48.6703 155.16 47.2374C155.997 45.8044 156.429 44.0763 156.429 42.1093C156.429 40.1425 155.997 38.4285 155.16 36.9814C154.31 35.5203 153.167 34.4103 151.746 33.6376ZM153.739 42.0813C153.739 43.8796 153.418 45.3968 152.791 46.6192C152.164 47.8415 151.327 48.7546 150.296 49.3448C149.265 49.9349 148.122 50.2299 146.895 50.2299H145.543C145.292 50.2299 145.069 50.1315 144.846 49.9067C144.637 49.696 144.526 49.4572 144.526 49.2042V34.9443C144.526 34.6913 144.623 34.4666 144.846 34.2417C145.055 34.031 145.292 33.9186 145.543 33.9186H146.895C148.122 33.9186 149.265 34.2137 150.296 34.8037C151.327 35.3938 152.164 36.307 152.791 37.5292C153.418 38.7656 153.739 40.297 153.739 42.0813Z" fill="#001E2B"/>
<path d="M172.245 43.1069C171.626 42.3903 170.432 41.7863 169.028 41.463C170.966 40.4936 171.963 39.1309 171.963 37.3748C171.963 36.4194 171.711 35.5624 171.204 34.8318C170.699 34.1013 169.982 33.5112 169.07 33.1037C168.156 32.6963 167.087 32.4856 165.879 32.4856H158.306V33.5112H158.91C159.163 33.5112 159.388 33.6095 159.613 33.8343C159.824 34.045 159.936 34.2839 159.936 34.5367V49.6539C159.936 49.9067 159.824 50.1456 159.613 50.3563C159.402 50.567 159.163 50.6794 158.91 50.6794H158.25V51.705H166.47C167.72 51.705 168.886 51.4943 169.94 51.0727C170.994 50.6513 171.837 50.0332 172.442 49.2183C173.059 48.4035 173.369 47.4059 173.369 46.2539C173.355 45.0175 172.989 43.9638 172.245 43.1069ZM162.817 49.9207C162.606 49.71 162.493 49.4712 162.493 49.2183V42.4324H166.4C167.776 42.4324 168.83 42.7837 169.561 43.4861C170.292 44.1887 170.657 45.1018 170.657 46.2258C170.657 46.9002 170.488 47.5605 170.18 48.1646C169.856 48.7828 169.378 49.2745 168.732 49.6539C168.1 50.0332 167.313 50.2299 166.4 50.2299H163.519C163.266 50.2299 163.041 50.1315 162.817 49.9207ZM162.507 40.9853V34.9583C162.507 34.7054 162.606 34.4806 162.831 34.2557C163.041 34.045 163.28 33.9327 163.533 33.9327H165.388C166.722 33.9327 167.706 34.2699 168.325 34.9161C168.942 35.5764 169.252 36.4194 169.252 37.4591C169.252 38.5268 168.956 39.3838 168.381 40.03C167.804 40.6623 166.933 40.9853 165.781 40.9853H162.507Z" fill="#001E2B"/>
<path d="M85.176 38.5724C84.1023 37.9843 82.9032 37.6763 81.6065 37.6763C80.3098 37.6763 79.0967 37.9703 78.0369 38.5724C76.9632 39.1604 76.1127 40.0144 75.4852 41.0926C74.8578 42.1707 74.5371 43.4309 74.5371 44.8309C74.5371 46.231 74.8578 47.4912 75.4852 48.5693C76.1127 49.6474 76.9632 50.5015 78.0369 51.0896C79.1107 51.6776 80.3098 51.9856 81.6065 51.9856C82.9032 51.9856 84.1163 51.6916 85.176 51.0896C86.2498 50.5015 87.1003 49.6474 87.7277 48.5693C88.3552 47.4912 88.6759 46.231 88.6759 44.8309C88.6759 43.4309 88.3552 42.1707 87.7277 41.0926C87.1003 40.0144 86.2498 39.1604 85.176 38.5724ZM86.2079 44.8309C86.2079 46.5531 85.7896 47.9532 84.9529 48.9613C84.1303 49.9694 83.0009 50.4875 81.6065 50.4875C80.2122 50.4875 79.0827 49.9694 78.2601 48.9613C77.4234 47.9532 77.0051 46.5531 77.0051 44.8309C77.0051 43.1088 77.4234 41.7087 78.2601 40.7006C79.0827 39.6925 80.2122 39.1744 81.6065 39.1744C83.0009 39.1744 84.1303 39.6925 84.9529 40.7006C85.7896 41.7087 86.2079 43.1088 86.2079 44.8309Z" fill="#001E2B"/>
<path d="M134.592 38.5724C133.518 37.9843 132.319 37.6763 131.023 37.6763C129.726 37.6763 128.513 37.9703 127.453 38.5724C126.379 39.1604 125.529 40.0144 124.901 41.0926C124.274 42.1707 123.953 43.4309 123.953 44.8309C123.953 46.231 124.274 47.4912 124.901 48.5693C125.529 49.6474 126.379 50.5015 127.453 51.0896C128.527 51.6776 129.726 51.9856 131.023 51.9856C132.319 51.9856 133.532 51.6916 134.592 51.0896C135.666 50.5015 136.516 49.6474 137.144 48.5693C137.771 47.4912 138.092 46.231 138.092 44.8309C138.092 43.4309 137.771 42.1707 137.144 41.0926C136.516 40.0144 135.652 39.1604 134.592 38.5724ZM135.624 44.8309C135.624 46.5531 135.205 47.9532 134.369 48.9613C133.546 49.9694 132.417 50.4875 131.023 50.4875C129.628 50.4875 128.499 49.9694 127.676 48.9613C126.839 47.9532 126.421 46.5531 126.421 44.8309C126.421 43.0947 126.839 41.7087 127.676 40.7006C128.499 39.6925 129.628 39.1744 131.023 39.1744C132.417 39.1744 133.546 39.6925 134.369 40.7006C135.192 41.7087 135.624 43.1088 135.624 44.8309Z" fill="#001E2B"/>
<path d="M114.663 37.6763C113.54 37.6763 112.515 37.9153 111.588 38.3936C110.661 38.8718 109.931 39.5189 109.411 40.3488C108.892 41.1645 108.625 42.0789 108.625 43.0494C108.625 43.9215 108.821 44.7232 109.229 45.4406C109.622 46.1299 110.155 46.7065 110.829 47.1847L108.821 49.9136C108.568 50.2511 108.54 50.7011 108.723 51.0669C108.92 51.4466 109.285 51.6718 109.706 51.6718H110.282C109.72 52.0516 109.271 52.5016 108.962 53.0361C108.597 53.6409 108.414 54.2739 108.414 54.9209C108.414 56.1306 108.948 57.1293 110.001 57.8748C111.04 58.6203 112.5 59 114.34 59C115.618 59 116.84 58.789 117.949 58.3811C119.072 57.9732 119.985 57.3683 120.659 56.5807C121.347 55.793 121.698 54.8365 121.698 53.7394C121.698 52.5861 121.277 51.7701 120.294 50.9826C119.452 50.3214 118.132 49.9698 116.489 49.9698H110.872C110.858 49.9698 110.843 49.9557 110.843 49.9557C110.843 49.9557 110.829 49.9276 110.843 49.9136L112.304 47.9444C112.697 48.1271 113.062 48.2397 113.385 48.3099C113.722 48.3804 114.101 48.4084 114.523 48.4084C115.702 48.4084 116.77 48.1694 117.696 47.6911C118.623 47.2129 119.367 46.5659 119.901 45.7359C120.435 44.9202 120.701 44.0059 120.701 43.0354C120.701 41.9945 120.196 40.0955 118.82 39.125C118.82 39.111 118.834 39.111 118.834 39.111L121.853 39.4485V38.056H117.022C116.264 37.817 115.478 37.6763 114.663 37.6763ZM116.348 46.4814C115.815 46.7627 115.239 46.9174 114.663 46.9174C113.722 46.9174 112.894 46.5799 112.191 45.9189C111.489 45.2577 111.138 44.2872 111.138 43.0494C111.138 41.8117 111.489 40.841 112.191 40.18C112.894 39.5189 113.722 39.1813 114.663 39.1813C115.253 39.1813 115.815 39.322 116.348 39.6173C116.882 39.8987 117.317 40.3347 117.668 40.9114C118.005 41.4882 118.188 42.2055 118.188 43.0494C118.188 43.9074 118.019 44.6247 117.668 45.1874C117.331 45.7641 116.882 46.2002 116.348 46.4814ZM112.543 51.6576H116.348C117.401 51.6576 118.075 51.8686 118.525 52.3188C118.974 52.7688 119.199 53.3736 119.199 54.077C119.199 55.1038 118.792 55.9478 117.977 56.5807C117.163 57.2137 116.067 57.5372 114.719 57.5372C113.54 57.5372 112.557 57.27 111.84 56.7635C111.124 56.2572 110.759 55.4836 110.759 54.499C110.759 53.8801 110.928 53.3033 111.265 52.797C111.602 52.2906 112.009 51.9249 112.543 51.6576Z" fill="#001E2B"/>
<path d="M176.217 51.4705C175.94 51.3186 175.731 51.0976 175.565 50.8353C175.412 50.5592 175.328 50.2692 175.328 49.9516C175.328 49.634 175.412 49.3303 175.565 49.0679C175.717 48.7917 175.94 48.5846 176.217 48.4327C176.496 48.2809 176.801 48.198 177.148 48.198C177.495 48.198 177.8 48.2809 178.079 48.4327C178.356 48.5846 178.565 48.8056 178.731 49.0679C178.884 49.344 178.968 49.634 178.968 49.9516C178.968 50.2692 178.884 50.5729 178.731 50.8353C178.579 51.1115 178.356 51.3186 178.079 51.4705C177.8 51.6223 177.495 51.7052 177.148 51.7052C176.815 51.7052 176.496 51.6362 176.217 51.4705ZM177.926 51.2772C178.161 51.1529 178.329 50.9596 178.468 50.7386C178.593 50.5039 178.663 50.2416 178.663 49.9516C178.663 49.6616 178.593 49.3993 178.468 49.1646C178.342 48.9299 178.161 48.7503 177.926 48.626C177.69 48.5017 177.439 48.4327 177.148 48.4327C176.857 48.4327 176.606 48.5017 176.37 48.626C176.134 48.7503 175.966 48.9436 175.828 49.1646C175.703 49.3993 175.633 49.6616 175.633 49.9516C175.633 50.2416 175.703 50.5039 175.828 50.7386C175.954 50.9733 176.134 51.1529 176.37 51.2772C176.606 51.4015 176.857 51.4705 177.148 51.4705C177.439 51.4705 177.704 51.4015 177.926 51.2772ZM176.398 50.7939V50.6696L176.426 50.6558H176.51C176.536 50.6558 176.564 50.642 176.578 50.6282C176.606 50.6006 176.606 50.5868 176.606 50.5592V49.275C176.606 49.2474 176.592 49.2199 176.578 49.206C176.55 49.1783 176.536 49.1783 176.51 49.1783H176.426L176.398 49.1646V49.0403L176.426 49.0265H177.148C177.357 49.0265 177.509 49.0679 177.634 49.1646C177.76 49.2612 177.814 49.3855 177.814 49.5512C177.814 49.6755 177.774 49.7997 177.676 49.8826C177.579 49.9792 177.467 50.0345 177.329 50.0483L177.495 50.1035L177.814 50.6143C177.842 50.6558 177.87 50.6696 177.912 50.6696H177.995L178.009 50.6835V50.8076L177.995 50.8215H177.565L177.537 50.8076L177.092 50.062H176.981V50.5592C176.981 50.5868 176.995 50.6143 177.009 50.6282C177.037 50.6558 177.051 50.6558 177.078 50.6558H177.162L177.19 50.6696V50.7939L177.162 50.8076H176.426L176.398 50.7939ZM177.106 49.8826C177.218 49.8826 177.315 49.8549 177.371 49.7859C177.425 49.7306 177.467 49.634 177.467 49.5236C177.467 49.413 177.439 49.3303 177.385 49.2612C177.329 49.1922 177.245 49.1646 177.148 49.1646H177.092C177.064 49.1646 177.037 49.1783 177.023 49.1922C176.995 49.2197 176.995 49.2336 176.995 49.2612V49.8826H177.106Z" fill="#001E2B"/>
</g>
<defs>
<clipPath id="clip0_48_41193">
<rect width="154.597" height="39" fill="white" transform="translate(24.7012 20)"/>
</clipPath>
</defs>
</svg>
