<svg width="204" height="84" viewBox="0 0 204 84" fill="none" xmlns="http://www.w3.org/2000/svg">
<rect width="204" height="83.6923" rx="9.2878" fill="white"/>
<path d="M107.056 32.6044C106.857 32.8454 106.744 33.1144 106.744 33.5823V46.4465H106.673C106.673 46.4465 99.6321 33.8935 99.2918 33.3132C99.0508 32.9016 98.7818 32.6184 98.4274 32.4055C98.0729 32.2078 97.7045 32.0803 96.9967 32.0803H94.6734C94.1342 32.0803 93.7949 32.264 93.5539 32.5481C93.3551 32.7881 93.2417 33.0582 93.2417 33.5251V51.7597C93.2417 52.2276 93.3551 52.4966 93.5539 52.7376C93.7949 53.0207 94.1342 53.2044 94.6734 53.2044H95.9906C96.5288 53.2044 96.8691 53.0207 97.1101 52.7376C97.3079 52.4966 97.4213 52.2276 97.4213 51.7597V38.5832H97.4926C97.4926 38.5832 104.803 51.5328 105.101 52.0147C105.512 52.6944 106.205 53.2044 107.197 53.2044H109.45C109.988 53.2044 110.329 53.0207 110.57 52.7376C110.768 52.4966 110.881 52.2276 110.881 51.7597V35.3101H140.478C140.776 35.3101 141.002 35.2258 141.173 35.0842C141.356 34.9136 141.442 34.6867 141.442 34.3473V33.1003C141.442 32.76 141.356 32.5331 141.173 32.3634C141.002 32.2218 140.776 32.1365 140.478 32.1365H108.175C107.637 32.1365 107.297 32.3213 107.056 32.6044ZM119.977 37.4778C115.061 37.4778 112.298 41.3181 112.298 45.3702C112.298 49.6914 115.259 53.4886 120.005 53.4886C122.372 53.4886 124.695 52.596 126.026 51.0227C126.608 50.343 127.076 49.3933 127.076 48.813C127.076 48.6142 127.032 48.4445 126.92 48.317C126.806 48.1754 126.636 48.09 126.339 48.09H124.057C123.604 48.09 123.292 48.2597 123.066 48.6001C122.4 49.578 121.436 50.088 120.019 50.088C117.894 50.088 116.52 48.4726 116.421 46.7015H126.282C126.721 46.7015 127.032 46.6021 127.245 46.3903C127.486 46.1634 127.6 45.8371 127.6 45.2277C127.6 43.3723 127.018 41.4456 125.8 39.9717C124.553 38.4838 122.655 37.4778 119.977 37.4778ZM135.179 37.4778C131.297 37.4778 128.747 39.3201 128.747 42.2669C128.747 43.315 129.13 44.1654 129.753 44.8311C130.476 45.6112 131.51 46.1493 133.012 46.5318L136.256 47.3531C137.149 47.58 137.942 47.8491 137.942 48.6282C137.942 49.833 136.667 50.2436 135.307 50.2436C134.641 50.2436 133.947 50.1161 133.38 49.833C132.983 49.6342 132.644 49.3511 132.403 48.9685C132.19 48.6422 132.12 48.4013 131.793 48.2176C131.595 48.1041 131.354 48.09 131.028 48.09H129.271C128.889 48.09 128.705 48.2035 128.577 48.3591C128.45 48.5147 128.407 48.7416 128.407 48.9685C128.407 49.5348 128.606 50.2437 129.073 50.8812C130.15 52.326 132.403 53.4886 135.278 53.4886C138.112 53.4886 142.037 52.3119 142.037 48.5148C142.037 47.5379 141.753 46.7015 141.229 46.0218C140.563 45.1574 139.614 44.562 137.999 44.1514L134.783 43.3291C133.451 42.9897 132.827 42.7488 132.827 41.9265C132.827 41.1333 133.536 40.4958 135.179 40.4958C136.143 40.4958 137.021 40.7087 137.588 41.304C138.055 41.8 137.971 42.055 138.339 42.2528C138.565 42.3663 138.82 42.3662 139.218 42.3662H140.818C141.073 42.3662 141.258 42.3241 141.399 42.1675C141.513 42.04 141.583 41.8422 141.583 41.5159C141.583 40.7789 141.101 39.8302 140.252 39.1073C139.118 38.1294 137.333 37.4778 135.179 37.4778ZM144.006 38.017H143.213C142.916 38.017 142.689 38.1013 142.519 38.2428C142.334 38.4135 142.249 38.6404 142.249 38.9798V39.9577C142.249 40.298 142.334 40.5239 142.519 40.6946C142.689 40.8362 142.916 40.9215 143.213 40.9215H144.006V47.9906C144.006 49.8039 144.502 50.9374 145.423 51.845C146.273 52.6803 147.378 53.2044 149.305 53.2044H150.509C150.807 53.2044 151.033 53.1201 151.204 52.9785C151.387 52.8079 151.501 52.5809 151.501 52.2416V51.0087C151.501 50.6684 151.387 50.4425 151.204 50.2718C151.033 50.1302 150.807 50.0449 150.509 50.0449H150.339C149.574 50.0449 149.05 49.8471 148.696 49.5067C148.271 49.1101 148.058 48.5007 148.058 47.7075V40.9215H150.637C150.935 40.9215 151.161 40.8362 151.331 40.6946C151.515 40.5239 151.6 40.298 151.6 39.9577V38.9798C151.6 38.6404 151.515 38.4135 151.331 38.2428C151.161 38.1013 150.935 38.017 150.637 38.017H148.072V33.3975C148.072 33.0291 147.959 32.76 147.789 32.5481C147.576 32.2931 147.279 32.1365 146.84 32.1365H145.239C144.799 32.1365 144.502 32.2931 144.289 32.5481C144.119 32.76 144.006 33.0291 144.006 33.3975V38.017ZM152.678 51.9434C152.678 52.3119 152.79 52.5809 152.961 52.7938C153.173 53.0488 153.471 53.2044 153.909 53.2044H155.595C156.035 53.2044 156.332 53.0488 156.545 52.7938C156.715 52.5809 156.828 52.3119 156.828 51.9434V33.3985C156.828 33.03 156.715 32.761 156.545 32.5481C156.332 32.2931 156.035 32.1365 155.595 32.1365H153.909C153.471 32.1365 153.173 32.2931 152.961 32.5481C152.79 32.761 152.678 33.03 152.678 33.3985V51.9434ZM116.449 43.6835C116.633 41.9406 117.965 40.6374 119.991 40.6374C121.975 40.6374 123.349 41.9406 123.533 43.6835H116.449ZM172.172 35.3101C172.469 35.3101 172.696 35.2258 172.866 35.0842C173.051 34.9136 173.136 34.6867 173.136 34.3473V33.0291C173.136 32.519 173.037 32.264 172.866 32.0803C172.71 31.9096 172.455 31.8112 172.172 31.8112C171.945 31.8112 171.719 31.8393 171.337 31.8815L160.03 33.0009C159.705 33.029 159.549 33.1285 159.435 33.256C159.308 33.3975 159.251 33.5823 159.251 33.8373V34.5732C159.251 34.8574 159.308 34.9848 159.407 35.0983C159.534 35.2398 159.719 35.3101 159.974 35.3101H172.172ZM165.924 37.4778C161.008 37.4778 158.245 41.3181 158.245 45.3702C158.245 49.6914 161.207 53.4886 165.952 53.4886C168.319 53.4886 170.642 52.596 171.973 51.0227C172.555 50.343 173.023 49.3933 173.023 48.813C173.023 48.6142 172.979 48.4445 172.866 48.317C172.754 48.1754 172.583 48.09 172.286 48.09H170.005C169.551 48.09 169.239 48.2597 169.013 48.6001C168.347 49.578 167.383 50.088 165.966 50.088C163.841 50.088 162.467 48.4726 162.368 46.7015H172.258C172.696 46.7015 173.009 46.6021 173.22 46.3903C173.461 46.1634 173.575 45.8371 173.575 45.2277C173.575 43.3723 172.993 41.4456 171.776 39.9717C170.529 38.4838 168.602 37.4778 165.924 37.4778ZM162.396 43.6835C162.581 41.9406 163.912 40.6374 165.938 40.6374C167.922 40.6374 169.296 41.9406 169.48 43.6835H162.396ZM77.2625 35.48C73.5949 30.0093 70.3721 28.1659 69.4655 27.2984C68.4695 26.3416 67.7105 25.2573 67.2275 24.7352C66.1533 23.5615 64.7627 22.1128 62.4756 22.1128C60.2678 22.1128 58.809 23.5515 58.3351 24.7945C58.1976 25.1489 58.0891 25.5826 57.9907 25.7402C57.7739 26.0956 56.798 27.7613 56.3934 28.4219H58.2176L57.3301 30.0976C58.3652 29.8707 59.1042 29.703 60.0901 29.703C60.9676 29.703 61.5981 29.9108 61.8742 30.462C62.3873 31.4881 62.3873 34.5925 63.2547 36.9298C64.0629 39.1265 66.0348 41.2761 68.2526 42.9227C68.2816 42.9423 68.316 42.9524 68.351 42.9518C68.4594 42.9518 68.5287 42.8735 68.5287 42.7942C68.5287 42.7349 68.5086 42.6958 68.4594 42.6466C66.6061 40.7932 65.0981 38.743 64.2898 36.4961C63.4907 34.3073 63.6191 31.2311 62.9194 29.8606C62.4555 28.954 61.4706 28.7181 60.563 28.7181C59.8341 28.7181 59.1534 28.8657 58.8381 28.9339L59.6363 27.5835H58.2859C58.572 27.0815 58.8672 26.6177 59.0158 26.3416C59.1433 26.1046 59.1935 25.8095 59.3512 25.4059C59.8632 24.1138 60.9967 23.2955 62.4756 23.2955C64.329 23.2955 65.4133 24.4882 66.4876 25.681C66.9806 26.2332 67.7888 27.3868 68.7255 28.2442C69.3661 28.8355 70.5889 29.4962 72.4714 31.4389C73.5557 32.5624 74.8178 34.0212 76.1481 35.973C80.9101 42.9417 84.0345 49.0832 85.7795 53.8743L85.7504 53.8944C80.7524 50.5029 76.4242 47.2991 72.9353 43.3464C70.4604 40.5372 68.3119 37.2842 66.4384 33.1337C66.3099 32.8576 66.2024 32.6016 66.084 32.3355C66.0348 32.2271 65.9856 32.1969 65.9063 32.1969C65.8079 32.1969 65.7386 32.2662 65.7386 32.3646C65.7386 32.473 65.7878 32.71 65.8962 33.1829C66.8922 37.481 69.6522 41.3353 72.6 44.5391C75.5377 47.7238 78.8589 50.4637 81.5898 52.4556L83.7192 58.5469C83.7684 58.6955 83.8277 58.8532 83.8277 59.0008C83.8277 59.1092 83.7976 59.1975 83.7293 59.2567C83.6701 59.316 83.5918 59.3461 83.414 59.3461H82.7735C82.4974 59.3461 82.3879 59.3059 82.2895 59.2276C82.1911 59.1483 82.1229 59.0298 82.0727 58.8923C81.886 58.32 80.7615 55.1163 80.5456 54.4657C80.5054 54.3482 80.4362 54.3081 80.3579 54.3081C80.3358 54.3079 80.3139 54.3122 80.2935 54.3206C80.2731 54.3289 80.2546 54.3412 80.239 54.3568C80.2234 54.3724 80.211 54.391 80.2027 54.4114C80.1943 54.4318 80.1901 54.4537 80.1902 54.4757C80.1902 54.555 80.2193 54.6434 80.2695 54.9195C80.5546 56.3783 80.89 58.0148 81.0275 58.6363C81.0878 58.9214 81.156 59.1885 81.156 59.3853C81.156 59.562 81.1169 59.6614 80.9693 59.809L80.3087 60.4796C80.151 60.6372 80.0617 60.6764 79.9342 60.6764C79.7765 60.6764 79.648 60.568 79.5888 60.2919C78.8398 56.7919 77.7063 52.4557 77.4101 51.2519C77.3408 50.9868 77.2916 50.8382 77.134 50.8382C76.9965 50.8382 76.9473 50.9366 76.9473 51.0551C76.9473 51.1435 76.9663 51.2519 76.9764 51.3312C77.1541 52.5731 77.874 57.0982 78.6521 61.2286C78.7906 61.9385 79.0567 62.332 79.6681 62.332C79.9442 62.332 80.2093 62.2236 80.4562 61.9876C80.8609 61.583 80.9783 61.4746 81.4623 61.0017C81.8066 60.6664 82.0436 60.5288 82.6349 60.5288H84.0938C84.4391 60.5288 84.6259 60.4405 84.7935 60.2819C84.9512 60.1343 85.0496 59.9274 85.0496 59.6313C85.0496 59.3261 84.9712 59.0801 84.8628 58.7738C84.4883 57.7688 83.2855 54.3673 82.9301 53.4115L82.9602 53.3914C84.1922 54.3281 85.9863 55.5209 86.7754 55.5209C87.0214 55.5209 87.17 55.4124 87.17 55.0279C87.17 53.2147 84.153 45.752 77.2625 35.48ZM43.4208 24.0251C43.6276 23.5713 44.0814 23.256 44.6236 23.256C45.3625 23.256 45.9539 23.8283 45.9539 24.5873C45.9539 25.0301 45.747 25.4156 45.4218 25.6516C45.491 25.9086 45.5402 26.1345 45.5402 26.3513C45.5402 27.1796 45.0473 27.761 44.1406 28.0672C44.0222 28.5692 43.8053 29.023 43.4499 29.3583C42.8586 29.9296 42.2571 29.9296 42.2571 30.1666C42.2571 30.2951 42.3465 30.3734 42.5925 30.3734C43.6868 30.3734 44.7611 29.763 44.8896 28.7469C45.9348 28.3925 46.5653 27.3373 46.5653 26.4999C46.5653 26.2821 46.5452 26.0953 46.4569 25.9186C46.743 25.6415 47.0783 25.1686 47.0783 24.4688C47.0783 23.8574 46.8113 23.237 46.3384 22.7832C45.9248 22.3785 45.3424 22.1125 44.6627 22.1125C43.6768 22.1125 43.0362 22.6456 42.6718 23.1677C41.5965 23.1677 40.207 24.3604 40.207 26.0662H40.0594C39.96 25.4748 39.3496 25.0793 38.8365 25.0502C38.4229 23.8082 37.4861 22.744 35.948 22.744C35.7713 22.744 35.5545 22.754 35.3667 22.7832C34.9139 22.3685 34.4109 22.1125 33.7111 22.1125C32.3697 22.1125 31.2754 23.1877 31.2754 24.5471C31.2754 25.3955 31.6599 25.9768 32.3898 26.4899C32.3898 26.4899 32.3798 26.5984 32.3798 26.6476C32.3798 27.7319 33.5625 29.4276 35.3175 29.4276C35.3175 29.7027 35.6629 30.0782 36.0474 30.1465V30.285H35.8988C33.4842 30.285 32.4591 31.4486 32.4591 32.2267C31.7392 32.5229 31.2754 33.3211 31.2754 34.0601C31.2754 35.5289 32.3507 36.5741 33.7703 36.5741C34.2432 36.5741 34.7261 36.3873 35.0615 36.1303C35.3075 36.2186 35.6227 36.2679 35.948 36.2679C36.6287 36.2679 37.3878 36.0319 37.9199 35.2528C37.9992 35.2629 38.0674 35.2629 38.1468 35.2629C39.0142 35.2629 39.7632 34.6906 40.1578 33.9416C40.2562 33.7548 40.2953 33.6073 40.2953 33.4978C40.2953 33.3904 40.2461 33.301 40.1377 33.301C40.0001 33.301 39.9801 33.4295 39.7341 33.6564C39.1819 34.1594 38.3335 34.3462 37.466 34.3462C37.0424 34.9677 36.5203 35.293 35.9189 35.293C35.4751 35.293 35.1307 35.1745 34.7753 34.9375C34.4892 35.2528 34.1348 35.3813 33.7894 35.3813C33.0113 35.3813 32.4591 34.8392 32.4591 34.05C32.4591 33.4978 32.8135 33.0059 33.3065 32.8181C33.3948 31.8422 34.44 31.1816 35.7412 31.1816C35.9089 31.1816 36.0765 31.1916 36.2542 31.2117C36.451 30.8964 36.9239 30.5611 37.5946 30.4718C37.7331 30.4527 37.8406 30.4426 37.9199 30.4035C37.9992 30.3633 38.0383 30.285 38.0383 30.1957C38.0383 30.1174 38.0082 30.0481 37.9299 29.9989C37.8606 29.9597 37.7421 29.9407 37.6046 29.9106C36.9831 29.7921 36.2442 29.4075 35.8697 28.4708C34.3808 28.4708 33.2864 27.278 33.2864 25.9377V25.8493C32.7934 25.6515 32.4591 25.1787 32.4591 24.6165C32.4591 23.8775 33.0404 23.2861 33.7794 23.2861C34.2231 23.2861 34.6077 23.503 34.8547 23.8283C35.0615 23.769 35.2974 23.749 35.5243 23.749C36.6287 23.749 37.8114 24.4488 38.0383 25.8092C39.458 25.9377 39.7933 27.1405 39.8817 27.6435C39.9309 27.8995 39.97 28.1164 40.1377 28.1164C40.3154 28.1164 40.3546 27.9186 40.4138 27.6525C40.5222 27.1505 40.71 26.7459 41.0845 26.4307C41.0845 25.1385 42.0503 24.0251 43.4208 24.0251ZM46.2892 31.7535C45.8254 32.4141 45.491 32.7394 44.4358 33.9813C43.0463 35.6279 42.3164 36.9592 41.1036 39.916C41.3013 39.8959 41.5875 39.8768 41.9027 39.8768C42.0604 39.8768 42.1879 39.8768 42.3957 39.8858L42.5433 39.5706C43.224 38.1118 44.1396 36.1399 45.4218 34.6219L45.8655 34.0998C47.1858 32.5526 48.004 31.635 48.5171 29.5256C48.6948 28.7766 48.8424 28.1069 49.3454 27.623C49.7982 27.1893 50.3705 27.0025 50.9518 27.0025C51.4447 27.0025 51.8102 27.121 52.3423 27.3469C52.8253 27.5538 53.002 27.5939 53.515 27.5939C53.6927 27.5939 53.8202 27.5838 53.9387 27.5738L53.2489 28.5005L54.1857 29.1612C53.012 29.5055 52.3915 30.64 52.1837 31.1621C52.1446 31.2706 52.1255 31.3398 52.1255 31.4091C52.1255 31.4884 52.1646 31.5668 52.2831 31.5668C52.4106 31.5668 52.509 31.4683 52.6767 31.2705C53.249 30.5808 53.7027 30.1069 55.8111 29.4473L54.3232 28.3228L55.4467 26.6773H54.3925C53.7218 26.6773 53.2781 26.6672 52.6967 26.4011C51.9076 26.0367 51.504 25.8791 50.8042 25.8791C49.9468 25.8791 49.1677 26.1843 48.5271 26.7756C47.7872 27.4553 47.5603 28.3629 47.2952 29.3589C47.0874 30.127 46.8414 30.9754 46.2892 31.7535Z" fill="#2463A9"/>
<path d="M48.5568 38.4667C47.9945 39.2257 47.2255 40.2206 46.6341 41.2759C46.8219 41.3652 47.4433 41.7006 47.6602 41.8181C48.3399 40.793 49.2867 39.532 49.9071 38.5751C50.4694 37.7077 50.6963 37.3331 50.7354 36.1695C50.7455 35.9727 50.7455 35.785 50.7646 35.5983C50.8138 34.9969 50.9724 34.3854 51.5437 33.8242C51.9673 33.3995 52.5788 33.1836 53.1902 33.1836C53.7816 33.1836 54.126 33.3503 54.639 33.3503C55.0035 33.3503 55.2695 33.262 55.5064 33.1736L55.6942 33.1043L55.2404 34.1896L56.3046 34.6224C55.6249 35.0461 54.136 36.8703 54.136 39.0289C54.136 39.808 54.2545 40.5269 54.4221 41.1674C54.4422 41.2367 54.4814 41.306 54.5898 41.306C54.6882 41.306 54.7575 41.2468 54.7675 41.1383L54.7776 40.9114C54.8067 40.2508 54.8559 39.2066 55.1219 38.2699C55.5657 36.6926 56.7584 35.2137 57.9512 34.5039L56.2554 33.765L56.9854 31.9808L56.1872 32.1485C55.7042 32.2469 55.3488 32.3353 54.9251 32.3353C54.649 32.3353 54.3338 32.2961 53.9593 32.2068C53.6732 32.1385 53.3669 32.0792 52.9342 32.0792C52.1551 32.0792 51.3168 32.3744 50.7455 32.9266C49.7003 33.9226 49.6411 34.9969 49.5718 35.9537C49.4835 37.2247 49.2465 37.54 48.5568 38.4667ZM73.8519 39.0679C73.7827 38.9795 73.7234 38.9394 73.6451 38.9394C73.5266 38.9394 73.4674 39.0187 73.4674 39.1071C73.4674 39.2456 73.5658 39.4132 73.8128 39.8279C74.5618 41.0989 75.4885 42.3801 76.632 43.5839C77.8639 44.8941 79.3127 46.116 80.8609 47.2103L81.3438 47.5456C81.4131 47.5958 81.4623 47.625 81.5215 47.625C81.6199 47.625 81.6892 47.5266 81.6892 47.4473C81.6892 47.3981 81.6691 47.3479 81.6099 47.2987C80.1711 45.9885 78.623 44.3911 77.1742 42.854C76.0397 41.6411 74.877 40.36 73.8519 39.0679ZM42.1296 34.6026C42.2772 34.3566 42.7209 33.7552 42.8986 33.5675C42.1396 32.0303 40.8977 30.5615 40.3555 29.9792L39.9017 30.4229C40.4247 31.1819 41.3013 32.6508 42.1296 34.6026ZM34.9039 25.7012C34.8145 25.6219 34.7954 25.5727 34.7954 25.5135C34.7954 25.4452 34.8446 25.3659 34.9531 25.3659C34.9922 25.3659 35.0314 25.3759 35.0816 25.396C35.8105 25.6912 36.432 26.0365 36.9842 26.4602C37.447 26.8146 37.9008 27.2494 38.3436 27.7715L37.9299 28.2444C37.4179 27.8197 35.7613 26.4311 34.9039 25.7012ZM41.893 29.0035L41.3609 28.6782C41.7052 27.8599 42.13 27.111 42.632 26.5487C42.9874 26.1451 43.3227 25.8188 43.6972 25.4945C43.7856 25.4253 43.8347 25.366 43.9231 25.366C44.0225 25.366 44.0918 25.4453 44.0918 25.5236C44.0918 25.5628 44.0717 25.612 44.0325 25.6712C43.4311 26.6079 42.2575 28.4613 41.893 29.0035ZM35.2096 33.5773C35.0811 33.6265 35.0218 33.6566 34.9536 33.6566C34.8451 33.6566 34.7949 33.5673 34.7949 33.498C34.7949 33.4297 34.825 33.3906 34.8943 33.3303C36.1061 32.3845 37.1714 32.0101 38.6403 31.7631L38.817 32.3554L35.2096 33.5773ZM60.4945 25.9281C60.4945 25.5828 60.6722 24.9613 61.3128 24.9613C61.5296 24.9613 61.7365 25.0105 61.9042 25.0898C62.1411 25.1982 62.2987 25.3558 62.2987 25.5235C62.2987 25.7012 62.121 25.8789 61.8549 26.0958C61.5788 26.3217 61.2244 26.5295 60.9383 26.5295C60.5939 26.5295 60.4945 26.2032 60.4945 25.9281ZM50.489 28.8064C50.489 28.3827 50.745 27.9189 51.2379 27.9189C51.4548 27.9189 51.7108 28.0072 51.8986 28.1859C52.007 28.2843 52.0562 28.3918 52.0562 28.5012C52.0562 28.7381 51.8293 28.964 51.5632 29.1217C51.3564 29.2401 51.1395 29.3195 50.9528 29.3195C50.6466 29.3195 50.489 29.1307 50.489 28.8064Z" fill="#2463A9"/>
<path d="M52.8066 34.8887C52.8066 34.7903 52.8167 34.6718 52.8559 34.5533C52.9352 34.2973 53.1018 34.0504 53.5165 34.0504C53.7042 34.0504 53.91 34.0996 54.0777 34.2191C54.2263 34.3175 54.2855 34.4449 54.2855 34.5734C54.2855 34.9971 53.5757 35.4901 53.2203 35.4901C52.9643 35.4901 52.8066 35.2431 52.8066 34.8887ZM48.9227 47.3289C47.5924 47.3289 47 46.6984 47 45.9002C47 44.4996 49.4548 43.1302 51.6626 42.2818L52.2349 43.0217C50.8745 43.5629 48.1345 44.7275 48.1345 45.7325C48.1345 46.0869 48.3413 46.344 49.1686 46.344C50.6084 46.344 52.1566 45.6432 53.5853 44.9434C53.6937 44.8942 53.8222 44.845 53.9407 44.845C54.1274 44.845 54.2459 44.9042 54.3834 45.101L54.6204 45.4263C52.9548 46.344 50.8744 47.3289 48.9227 47.3289Z" fill="#2463A9"/>
<path d="M52.5868 47.7038C51.2857 48.4327 49.9353 48.9166 48.7425 48.9166C47.4112 48.9166 46.2285 48.3443 45.2426 46.8554C44.8289 46.2249 44.5036 45.4367 44.1091 44.737C43.6362 43.9087 43.1231 43.4649 42.2266 43.4649C41.4083 43.4649 40.6091 43.8002 39.7617 44.1647L39.8009 44.3524C39.8702 44.6576 39.9886 44.8745 40.2738 44.8745C40.4023 44.8745 40.5308 44.8163 40.6001 44.7962C41.0729 44.6476 41.4173 44.5191 41.9013 44.5191C42.6402 44.5191 42.9946 44.9538 43.4976 46.0181L43.6853 46.4126C43.1723 46.5903 41.9695 46.6787 41.0729 46.6787H40.6493L40.7185 47.1024C40.7477 47.2801 40.8169 47.4277 40.9645 47.497C41.1412 47.5853 41.3982 47.5953 41.842 47.5953C42.9655 47.5953 43.7837 47.4578 44.2566 47.3383C45.4695 49.1435 47.1351 49.8333 48.7425 49.8333C50.112 49.8333 51.5025 49.3303 52.8338 48.6014L52.5868 47.7038ZM53.9272 48.1473L53.6912 47.2397C55.7213 46.1464 57.5747 45.2689 60.5325 44.9827C60.5917 46.1163 60.5124 47.5459 61.3507 47.5459C62.1188 47.5459 63.7945 45.564 65.7272 43.0801C65.9049 43.2478 66.19 43.4256 66.4471 43.6223L65.9541 44.2629C64.0706 46.6886 62.4642 48.7588 61.1429 48.7588C59.911 48.7588 59.4472 47.309 59.4281 46.2247C57.5456 46.4124 55.7705 47.0429 53.9272 48.1473ZM80.0112 28.3627C79.2421 28.3627 79.0253 27.938 79.0253 27.3376C79.0253 26.0957 79.8044 24.3116 80.2973 23.2955H79.1036C78.4831 24.4983 76.0384 28.3527 74.7171 29.95L75.4761 30.7673C76.186 29.9792 76.9651 28.6388 77.8124 27.3176H77.9701C77.9701 27.3869 77.961 27.4652 77.961 27.5344C77.961 28.6489 78.5323 29.4761 79.9419 29.4761C80.8094 29.4761 82.1698 29.0424 83.4519 28.6087C84.5162 28.2442 85.492 27.8697 85.975 27.7322V26.5495C85.4228 26.7162 84.2993 27.1499 83.1357 27.5545C81.9138 27.9782 80.711 28.3627 80.0112 28.3627ZM82.643 31.9409C83.8257 31.4389 85.9451 30.5905 87.168 30.1467V28.9439C84.7132 29.8515 80.4051 31.6357 77.4673 33.2331C77.5467 33.3304 78.0597 34.0503 78.1179 34.1396C79.3599 33.6266 80.4743 33.2913 81.4793 33.2913C82.89 33.2913 84.0426 33.2912 85.9753 32.8374V31.9308C84.891 32.1286 83.7374 32.3645 82.9884 32.3645C82.5446 32.3645 82.4161 32.3053 82.4161 32.1577C82.4161 32.0694 82.4753 32.0101 82.643 31.9409Z" fill="#2463A9"/>
<path d="M57.3879 37.4797L56.9141 38.3874H61.9521L61.5776 37.4797H57.3879Z" fill="#2463A9"/>
<path d="M39.2401 42.8931C39.7722 42.8931 40.206 42.7154 40.6206 42.5487C41.0142 42.3901 41.4088 42.2324 41.9409 42.2324C43.2029 42.2324 44.7601 42.8439 46.1306 43.4252C46.2123 43.4568 46.299 43.4735 46.3866 43.4744C46.6045 43.4744 46.7721 43.376 46.8796 43.1692L47.0573 42.8439C45.5493 41.9664 43.1437 41.0296 41.8917 41.0296C41.3204 41.0296 40.9057 41.1783 40.5122 41.3349C40.0684 41.5136 39.6839 41.7003 39.2793 41.7003C38.2843 41.7003 35.7311 40.7144 35.7311 39.7586C35.7311 38.6351 39.7923 38.2014 40.2361 38.2014L40.6397 37.2837C37.693 37.2837 34.183 38.3188 34.183 39.6893C34.183 40.0839 34.4099 40.2807 34.4099 40.6451C34.4099 41.1381 34.183 41.4734 34.183 42.0256C34.183 42.3901 34.3998 42.8539 34.6559 43.2585C34.932 43.6822 35.2573 43.9573 35.2573 44.3127C35.2573 44.5788 35.0806 44.8941 35.0806 45.5155C35.0806 46.8458 35.8396 47.6551 37.3175 49.2414L37.6136 49.5566C36.3918 50.0305 34.1137 51.0164 33.5816 51.2423C31.7382 52.0114 31.2754 52.9481 31.2754 54.427C31.2754 54.9983 31.2754 55.6489 31.3145 56.2302H31.669C32.4089 56.2302 32.4973 55.7874 32.4973 55.3637C32.4973 55.0776 32.4872 54.7523 32.4872 54.3969C32.4973 53.5796 32.5274 52.8497 33.8476 52.2583C34.3807 52.0214 36.9922 50.9572 38.9349 50.1289C39.5062 49.8819 40.0383 49.6751 40.6296 49.6751C41.2903 49.6751 42.0493 49.9612 42.9961 50.5235C43.7942 50.9964 44.6326 51.6369 45.2932 52.3758L46.1306 51.7353C45.4107 50.8879 44.4158 50.1289 43.4198 49.5375C42.4238 48.9462 41.5373 48.6008 40.7883 48.6008C40.463 48.6008 40.1969 48.66 39.97 48.7193C39.704 48.7886 39.457 48.8668 39.1417 48.8668C38.7773 48.8668 38.4711 48.7785 38.0273 48.2654C37.8596 48.0787 36.7954 46.8659 36.5685 46.5114C36.4601 46.3438 36.2633 46.0085 36.2633 45.6139C36.2633 45.4462 36.2924 45.2495 36.3918 45.0718C37.3074 45.7816 38.4419 46.2153 39.8214 46.3829L39.6347 45.4462C37.6528 44.9242 35.5434 43.1792 35.5434 42.0557C35.5434 41.8188 35.6026 41.6511 35.692 41.4443C36.46 42.1541 38.2642 42.8931 39.2401 42.8931ZM53.4257 43.0709C54.6677 42.1934 55.9488 42.095 56.9839 42.095C57.6054 42.095 58.3343 42.1833 59.1034 42.2817C59.7248 42.361 60.2861 42.4203 60.9568 42.4203C62.3071 42.4203 63.6675 41.9273 64.2589 41.6703C64.4266 41.8781 64.7127 42.1542 64.9396 42.351C64.6535 42.5287 62.8403 43.5136 60.9869 43.5136C60.1686 43.5136 59.3895 43.4162 58.7188 43.3269C58.1275 43.2486 57.4869 43.1793 56.8654 43.1793C56.1857 43.1793 54.8153 43.3761 53.9679 43.7807L53.4257 43.0709Z" fill="#2463A9"/>
<path d="M71.7319 46.5899C70.253 49.7053 68.005 51.9723 65.6989 53.2835C64.6045 53.904 63.6186 54.3086 61.4901 54.3086H56.8858C55.2402 54.3086 54.2051 54.5255 53.3969 54.7323C52.5284 54.9592 51.9772 55.1851 51.0997 55.1851C49.7985 55.1851 48.5957 54.5446 48.0144 53.9341L49.0987 53.0767L48.5566 52.3558C48.2413 52.5837 44.387 55.4321 43.5777 56.0727L43.5285 56.0435C43.5486 55.8467 43.5486 55.669 43.5486 55.4913C43.5486 53.3227 42.5426 52.7996 41.0155 52.1892L39.9804 52.7996C42.0798 53.5004 42.6018 54.0616 42.6018 55.6289C42.6018 56.8718 42.1581 57.3638 41.5175 57.7393C40.8569 58.1238 40.0386 58.3005 39.3198 58.3005C39.0136 58.3005 38.876 58.3598 38.7676 58.4682C38.6491 58.5867 38.5898 58.7644 38.5898 59.0103V59.3557H38.8368C40.1571 59.3557 41.38 59.1489 42.7203 58.0937L47.0877 54.6831C47.7082 55.3929 49.2764 56.3789 51.1288 56.3789C52.174 56.3789 52.8446 56.1218 53.8105 55.8758C54.5595 55.6881 55.2894 55.5204 56.8858 55.5204H61.5092C63.8756 55.5204 65.0192 55.0275 66.2802 54.3187C69.0211 52.7805 71.3574 50.1781 72.6787 47.1902C72.3333 46.9744 72.008 46.7766 71.7319 46.5899Z" fill="#2463A9"/>
<path d="M64.309 50.2965C65.5017 48.3839 66.566 46.6881 69.1784 45.3086C68.9023 45.141 68.5087 44.8849 68.3009 44.7464C67.2858 45.1902 66.2808 46.0767 65.4234 46.9743C63.4516 49.0244 63.6283 50.2071 61.549 51.0063C61.0259 51.2031 60.3853 51.42 59.5671 51.6077C59.0842 50.1188 57.8723 48.6399 56.5902 48.6399C55.7027 48.6399 54.6776 49.1027 53.4949 49.6258C52.1053 50.2373 50.8333 50.9371 50.4297 51.2031L50.9718 51.933C51.3855 51.7051 52.5783 51.1138 53.771 50.6018C54.8061 50.158 55.7428 49.7935 56.3734 49.7935C57.3884 49.7935 58.049 50.9471 58.4145 51.8728C57.0832 52.1891 54.8945 52.2674 54.2348 52.2674C53.9286 52.2674 53.8202 52.3166 53.7117 52.4059C53.6134 52.4943 53.5341 52.6519 53.4849 52.8688L53.4065 53.2041H54.1154C57.8031 53.2041 61.2829 52.6228 63.5198 51.2623C63.8361 51.3517 64.1122 51.41 64.4666 51.41C65.7477 51.41 67.069 50.7102 67.8973 50.0696C68.1924 49.8427 68.2617 49.6349 68.2617 49.409C68.2617 49.3005 68.2517 49.2021 68.2417 49.1027L68.2025 48.7193C67.0198 49.655 66.0338 50.3557 64.812 50.3557C64.5951 50.3557 64.4375 50.3357 64.309 50.2965Z" fill="#2463A9"/>
</svg>
