<svg width="204" height="84" viewBox="0 0 204 84" fill="none" xmlns="http://www.w3.org/2000/svg">
<rect width="204" height="83.6923" rx="9.2878" fill="white"/>
<g clip-path="url(#clip0_48_41163)">
<path d="M78.1289 59.1446V58.8038C78.8134 58.7186 79.2411 58.6335 79.4122 58.4631C79.5834 58.2927 79.6689 57.8668 79.6689 57.1001V49.689C79.6689 49.0927 79.5834 48.6668 79.4122 48.4964C79.2411 48.3261 78.8134 48.2409 78.2145 48.1557V47.8149H83.0056V48.1557C82.4067 48.2409 81.9789 48.3261 81.8078 48.4964C81.6367 48.6668 81.5511 49.0927 81.5511 49.689V53.0112H86.77V49.689C86.77 49.0927 86.6845 48.6668 86.5134 48.4964C86.3422 48.3261 85.9145 48.2409 85.3156 48.1557V47.8149H90.1067V48.1557C89.5078 48.2409 89.08 48.3261 88.9089 48.4964C88.7378 48.6668 88.6522 49.0927 88.6522 49.689V57.2705C88.6522 57.8668 88.7378 58.2927 88.9089 58.4631C89.08 58.6335 89.5078 58.7186 90.1067 58.8038V59.1446H85.3156V58.8038C86 58.7186 86.4278 58.6335 86.5989 58.4631C86.77 58.2927 86.8556 57.8668 86.8556 57.1001V53.7779H81.6367V57.2705C81.6367 57.8668 81.7222 58.2927 81.8934 58.4631C82.0645 58.6335 82.4922 58.7186 83.0911 58.8038V59.1446H78.1289Z" fill="#63666A"/>
<path d="M94.8977 52.6706C95.0688 52.9261 95.1544 53.352 95.2399 53.9483H91.7322C91.8177 53.5224 91.9033 53.0965 92.1599 52.8409C92.5022 52.2446 93.0155 51.9891 93.6144 51.9891C94.1277 51.9039 94.5555 52.1594 94.8977 52.6706ZM91.3899 52.5002C90.7055 53.352 90.3633 54.2891 90.3633 55.3965C90.3633 56.4187 90.6199 57.3557 91.2188 58.1224C91.8177 58.8891 92.5877 59.315 93.6144 59.315C94.5555 59.315 95.3255 58.9743 95.9244 58.378C96.5233 57.7817 96.9511 57.1002 97.2077 56.4187L96.9511 56.3335C96.6088 56.9298 96.2666 57.3557 95.8388 57.6113C95.4111 57.952 94.9833 58.0372 94.3844 58.0372C93.6999 58.0372 93.0155 57.7817 92.5022 57.1854C91.9888 56.5891 91.6466 55.652 91.6466 54.3743H96.9511C96.9511 53.352 96.6944 52.5854 96.0955 52.0743C95.4966 51.5632 94.8122 51.2224 94.0422 51.2224C92.9299 51.3076 92.0744 51.7335 91.3899 52.5002Z" fill="#63666A"/>
<path d="M102.084 57.952C101.742 58.1224 101.4 58.2928 101.058 58.2928C100.801 58.2928 100.544 58.2076 100.288 58.0372C99.9454 57.7817 99.7743 57.4409 99.7743 56.9298C99.7743 56.3335 100.202 55.7372 100.972 55.2261C101.4 54.9705 101.913 54.715 102.598 54.5446V57.1854C102.598 57.4409 102.427 57.6965 102.084 57.952ZM98.8332 58.7187C99.1754 59.0594 99.6032 59.2298 100.117 59.2298C100.544 59.2298 101.058 59.0594 101.571 58.8039C101.913 58.6335 102.255 58.3779 102.683 57.952C102.683 58.2928 102.769 58.5483 102.94 58.8039C103.111 59.0594 103.368 59.1446 103.795 59.1446C104.138 59.1446 104.48 59.0594 104.737 58.8039C104.908 58.6335 105.164 58.4631 105.335 58.2928V57.8668C105.164 58.0372 104.993 58.1224 104.908 58.1224C104.822 58.1224 104.737 58.2076 104.565 58.2076C104.309 58.2076 104.223 58.1224 104.138 57.8668C104.052 57.7816 104.052 57.5261 104.052 57.1854V53.8631C104.052 53.0965 103.967 52.5854 103.71 52.1594C103.368 51.4779 102.598 51.1372 101.485 51.1372C100.544 51.1372 99.8598 51.3928 99.3465 51.8187C98.8332 52.2446 98.6621 52.6705 98.6621 53.0113C98.6621 53.1816 98.7476 53.352 98.8332 53.5224C99.0043 53.6928 99.1754 53.7779 99.4321 53.7779C99.6032 53.7779 99.7743 53.7779 99.8598 53.6928C100.031 53.6076 100.202 53.352 100.202 53.0113C100.202 52.9261 100.202 52.8409 100.202 52.6705C100.202 52.5002 100.202 52.415 100.202 52.3298C100.202 52.0742 100.288 51.9039 100.544 51.7335C100.801 51.5631 101.058 51.4779 101.4 51.4779C101.999 51.4779 102.427 51.6483 102.598 52.0742C102.683 52.3298 102.769 52.6705 102.769 53.2668V53.9483C101.229 54.5446 100.202 54.9705 99.6887 55.3113C98.9187 55.8224 98.491 56.5039 98.491 57.3557C98.3198 57.952 98.491 58.3779 98.8332 58.7187Z" fill="#63666A"/>
<path d="M105.849 59.1445V58.8889C106.363 58.8038 106.705 58.7186 106.876 58.5482C107.047 58.3778 107.133 58.0371 107.133 57.6112V49.5186C107.133 49.1778 107.133 48.9223 107.047 48.7519C106.961 48.4963 106.705 48.4112 106.363 48.4112C106.277 48.4112 106.191 48.4112 106.106 48.4112C106.02 48.4112 105.935 48.4112 105.764 48.4963V48.2408C106.534 48.0704 107.389 47.8149 108.501 47.4741C108.501 47.4741 108.587 47.4741 108.587 47.5593C108.587 47.5593 108.587 47.6445 108.587 47.8149V57.8667C108.587 58.3778 108.673 58.6334 108.844 58.8038C109.015 58.9741 109.357 59.0593 109.87 59.0593V59.3149H105.849V59.1445Z" fill="#63666A"/>
<path d="M112.864 51.3926H114.575V51.9888H112.864V56.7592C112.864 57.1851 112.864 57.5259 112.95 57.6963C113.121 58.1222 113.378 58.2925 113.72 58.2925C113.891 58.2925 114.062 58.2074 114.233 58.1222C114.404 58.037 114.575 57.8666 114.747 57.6963L115.003 57.8666L114.832 58.1222C114.575 58.5481 114.233 58.8037 113.891 58.974C113.549 59.1444 113.292 59.2296 112.95 59.2296C112.265 59.2296 111.838 58.974 111.581 58.3777C111.495 58.037 111.41 57.6111 111.41 57.1V52.074H110.554C110.554 52.074 110.469 52.074 110.469 51.9888C110.469 51.9888 110.469 51.9888 110.469 51.9037C110.469 51.8185 110.469 51.8185 110.469 51.7333C110.469 51.7333 110.554 51.6481 110.725 51.4777C111.153 51.137 111.41 50.8814 111.581 50.7111C111.752 50.5407 112.18 50.0296 112.779 49.1777C112.864 49.1777 112.864 49.1777 112.95 49.1777V49.2629L112.864 51.3926Z" fill="#63666A"/>
<path d="M115.346 59.1445V58.8889C115.773 58.8037 116.116 58.7185 116.287 58.5482C116.458 58.3778 116.458 58.037 116.458 57.3556V49.3482C116.458 49.0074 116.458 48.837 116.372 48.6667C116.287 48.4963 116.116 48.4111 115.773 48.4111C115.688 48.4111 115.688 48.4111 115.602 48.4111C115.517 48.4111 115.517 48.4111 115.431 48.4111V48.0704C115.688 47.9852 115.945 47.9 116.372 47.8148C116.715 47.7296 116.971 47.6445 117.142 47.5593L117.912 47.3037V47.3889V52.5C118.255 52.0741 118.597 51.8185 118.853 51.6482C119.367 51.3074 119.88 51.137 120.479 51.137C121.42 51.137 122.019 51.4778 122.361 52.2445C122.532 52.6704 122.618 53.1815 122.618 53.863V57.2704C122.618 57.8667 122.703 58.2074 122.789 58.463C122.96 58.6333 123.217 58.7185 123.645 58.8037V59.0593H120.051V58.8889C120.565 58.8037 120.821 58.7185 120.992 58.5482C121.163 58.3778 121.163 58.037 121.163 57.3556V53.9482C121.163 53.437 121.078 53.0111 120.907 52.6704C120.736 52.3296 120.393 52.1593 119.88 52.1593C119.452 52.1593 119.025 52.3296 118.597 52.5852C118.169 52.9259 117.998 53.0963 117.998 53.1815V57.2704C117.998 57.8667 118.083 58.2926 118.255 58.463C118.426 58.6333 118.682 58.7185 119.196 58.8037V59.0593H115.346V59.1445Z" fill="#63666A"/>
<path d="M125.612 57.6112C125.612 56.7593 126.211 56.163 127.066 56.163C127.836 56.163 128.435 56.7593 128.435 57.6112C128.435 58.463 127.836 59.0593 127.066 59.0593C126.211 59.0593 125.612 58.3778 125.612 57.6112ZM127.066 59.3149C128.007 59.3149 128.863 58.5482 128.863 57.6112C128.863 56.589 128.093 55.9075 127.066 55.9075C126.125 55.9075 125.27 56.6741 125.27 57.6112C125.27 58.5482 126.04 59.3149 127.066 59.3149ZM126.638 57.6964H126.981L127.494 58.5482H127.836L127.237 57.6964C127.494 57.6964 127.751 57.526 127.751 57.1852C127.751 56.7593 127.494 56.589 127.066 56.589H126.296V58.5482H126.638V57.6964ZM126.638 57.4408V56.8445H127.066C127.237 56.8445 127.494 56.9297 127.494 57.1001C127.494 57.4408 127.237 57.4408 126.981 57.4408H126.638Z" fill="#63666A"/>
<path d="M93.3578 30.7779H92.5878C92.0745 27.8816 89.4223 26.8594 86.7701 26.8594C83.8612 26.8594 80.9523 28.989 80.9523 32.8224C80.9523 36.5705 83.3478 39.9779 87.1978 39.9779C88.8234 39.9779 91.3901 39.1261 93.3578 36.4002V38.7853C91.0478 40.3187 88.909 40.8298 86.5134 40.8298C78.8134 40.8298 77.7012 35.4631 77.7012 33.2483C77.7012 30.0113 80.2678 26.0076 87.1123 26.0076C88.4812 26.0076 91.219 26.3483 93.2723 27.115V30.7779H93.3578Z" fill="#671E75"/>
<path d="M94.8984 39.4669C96.1818 39.4669 96.524 39.0409 96.524 38.0187V29.1595C96.524 28.1372 96.1818 27.7113 94.8984 27.7113V27.2002H100.716V27.7113C99.4329 27.7113 99.0907 28.1372 99.0907 29.1595V32.8224H106.62V29.1595C106.62 28.1372 106.277 27.7113 104.994 27.7113V27.2002H110.812V27.7113C109.528 27.7113 109.186 28.1372 109.186 29.1595V38.0187C109.186 39.0409 109.528 39.4669 110.812 39.4669V39.978H104.994V39.4669C106.277 39.4669 106.62 39.0409 106.62 38.0187V33.5891H99.0907V38.0187C99.0907 39.0409 99.4329 39.4669 100.716 39.4669V39.978H94.8984V39.4669Z" fill="#671E75"/>
<path d="M131.173 27.7113V27.2002H125.356V27.7113C126.639 27.7113 126.981 28.1372 126.981 29.1595V38.0187C126.896 38.7854 126.382 39.2965 125.698 39.3817C124.757 39.2113 123.645 38.4446 122.618 36.9965L120.479 33.6743C122.447 33.1632 123.302 31.715 123.302 30.5224C123.302 28.7335 122.19 27.2002 118.682 27.2002C117.399 27.2002 113.207 27.2002 112.266 27.2002V27.7113C113.549 27.7113 113.891 28.1372 113.891 29.1595V38.0187C113.891 39.0409 113.549 39.4669 112.266 39.4669V39.978H118.083V39.4669C116.8 39.4669 116.458 39.0409 116.458 38.0187V34.015C117.827 34.015 118.083 33.9298 118.939 35.5483L119.709 37.0817C120.821 39.2113 121.933 40.0632 124.586 40.0632C124.671 40.0632 124.928 40.0632 125.356 40.0632C127.495 40.0632 131.173 40.0632 131.173 40.0632V39.552C129.89 39.552 129.548 39.1261 129.548 38.1039V29.2446C129.548 28.1372 129.89 27.7113 131.173 27.7113ZM117.741 33.5039C117.313 33.5039 116.8 33.4187 116.458 33.4187V27.7965C116.715 27.7113 116.971 27.7113 117.313 27.7113C119.88 27.7113 120.65 29.6706 120.65 31.0335C120.65 32.7372 119.538 33.5039 117.741 33.5039Z" fill="#671E75"/>
<path d="M164.198 27.2002V27.7113C165.567 27.7113 165.823 28.2224 165.823 29.2446L165.909 31.8853C165.909 32.652 165.909 33.4187 165.909 34.4409C165.909 37.5927 164.711 39.6372 161.46 39.6372C159.321 39.6372 157.524 38.189 157.524 35.4631V29.2446C157.524 28.2224 157.867 27.7965 159.064 27.7965V27.2853H141.44C140.413 27.115 139.301 27.0298 138.445 27.0298C133.997 27.0298 133.398 29.8409 133.398 30.7779C133.398 34.7816 140.67 34.6113 140.67 37.5076C140.67 38.5298 139.729 39.6372 137.761 39.6372C136.392 39.6372 134.424 38.7002 133.911 36.5705H133.227V39.7224C134.681 40.0631 136.392 40.3187 137.675 40.3187C141.012 40.3187 142.723 38.615 142.723 36.4853C142.723 32.4816 135.28 32.2261 135.28 29.5853C135.28 28.6483 136.221 27.5409 137.847 27.6261C141.697 27.8816 141.44 30.6927 141.44 30.6927H142.21C142.21 30.6927 141.697 28.1372 144.948 28.052H147.258V38.0187C147.258 39.0409 146.915 39.4668 145.632 39.4668V39.9779H151.45V39.4668C150.167 39.4668 149.824 39.0409 149.824 38.0187V28.052H152.477C153.931 28.052 154.958 28.3927 155.214 30.2668V34.952C155.214 38.7853 157.867 40.2335 161.46 40.2335C165.652 40.2335 166.764 37.5927 166.85 34.952L166.935 29.1594C166.935 28.1372 167.278 27.7113 168.475 27.7113V27.2002H164.198Z" fill="#671E75"/>
<path d="M169.16 36.5705H169.845C170.358 38.7002 172.326 39.6372 173.695 39.6372C175.662 39.6372 176.603 38.5298 176.603 37.5076C176.603 34.6113 169.331 34.7816 169.331 30.7779C169.331 29.8409 169.93 27.0298 174.379 27.0298C175.491 27.0298 177.031 27.115 178.143 27.5409V30.7779H177.459C177.202 28.9039 175.919 27.7965 173.78 27.7965C172.155 27.7965 171.213 28.7335 171.213 29.7557C171.213 32.3965 178.657 32.652 178.657 36.6557C178.657 38.7853 176.946 40.489 173.609 40.489C172.326 40.489 170.615 40.2335 169.16 39.8927V36.5705Z" fill="#671E75"/>
<path d="M34.7529 39.3817C41.6829 39.3817 48.014 36.5706 52.634 31.9706V20.8965H36.9774V32.4817H25.3418V37.5928C28.2507 38.7002 31.4162 39.3817 34.7529 39.3817Z" fill="#671E75"/>
<path d="M52.5481 32.4814C49.2114 40.6592 41.7681 45.9407 32.5281 45.9407C29.9614 45.9407 27.4803 45.5148 25.2559 44.6629V47.9H36.977V59.4851H52.5481V47.9H64.1836V32.4814H52.5481Z" fill="#671E75"/>
<path d="M52.1199 32.4816C49.8099 31.4594 47.3288 30.9482 44.7621 30.9482C42.0243 30.9482 39.3721 31.5445 36.9766 32.5668V39.3816C42.7943 38.7853 48.0988 36.3149 52.1199 32.4816Z" fill="#BE98BE"/>
<path d="M52.4624 32.6519C51.6069 34.6111 50.5802 36.4852 49.2969 38.0185C55.628 38.8704 61.018 42.6185 64.098 47.9C63.5847 41.8519 58.8791 35.6333 52.4624 32.6519Z" fill="#BE98BE"/>
<path d="M25.3418 47.9854C28.5074 54.4594 35.3518 56.7594 42.7951 56.7594C46.3029 56.7594 49.7251 55.9928 52.5485 54.5446V61.8705C49.9818 62.8928 47.0729 63.4039 44.0785 63.4039C33.2985 63.4891 26.2829 56.9298 25.3418 47.9854Z" fill="#BE98BE"/>
<path d="M52.5488 32.5667C56.7411 27.9667 62.5588 25.0704 68.9755 25.0704C72.0555 25.0704 74.9644 25.7519 77.7022 26.9445V19.6186C75.6488 18.7667 73.3388 18.3408 71.0288 18.3408C62.7299 18.3408 55.5433 24.0482 52.6344 32.0556L52.5488 32.5667Z" fill="#BE98BE"/>
</g>
<defs>
<clipPath id="clip0_48_41163">
<rect width="154" height="46" fill="white" transform="translate(25 18)"/>
</clipPath>
</defs>
</svg>
