<svg width="204" height="84" viewBox="0 0 204 84" fill="none" xmlns="http://www.w3.org/2000/svg">
<rect width="204" height="83.6923" rx="9.2878" fill="white"/>
<g clip-path="url(#clip0_48_41088)">
<mask id="mask0_48_41088" style="mask-type:luminance" maskUnits="userSpaceOnUse" x="20" y="23" width="165" height="37">
<path d="M185 23H20V60H185V23Z" fill="white"/>
</mask>
<g mask="url(#mask0_48_41088)">
<path d="M95.4223 45.798C96.6509 45.798 97.3987 45.104 97.3987 44.1963C97.3987 42.8615 96.0633 42.381 94.8882 41.6335C93.3391 40.7259 92.5379 39.8183 92.5379 38.4301C92.5379 36.7216 93.8733 35.4402 95.9565 35.4402C96.9179 35.4402 97.826 35.6538 98.7875 36.1343L98.7341 37.9496C97.6658 37.3623 96.8111 37.0419 96.1167 37.0419C95.0484 37.0419 94.4608 37.5758 94.4608 38.3233C94.4608 39.3377 95.7428 39.8716 96.8111 40.5657C98.5204 41.5802 99.4285 42.5946 99.4285 44.1429C99.4285 46.1184 97.9862 47.5066 95.5291 47.5066C94.4608 47.5066 93.4459 47.293 92.4845 46.8125L92.3242 44.6234C93.4459 45.4243 94.4608 45.798 95.4223 45.798Z" fill="#77787B"/>
</g>
<mask id="mask1_48_41088" style="mask-type:luminance" maskUnits="userSpaceOnUse" x="20" y="23" width="165" height="37">
<path d="M185 23H20V60H185V23Z" fill="white"/>
</mask>
<g mask="url(#mask1_48_41088)">
<path d="M84.2582 45.798C85.4868 45.798 86.2346 45.104 86.2346 44.1963C86.2346 42.8615 84.8992 42.381 83.7241 41.6335C82.175 40.7259 81.3738 39.8183 81.3738 38.4301C81.3738 36.7216 82.7092 35.4402 84.7924 35.4402C85.8073 35.4402 86.6619 35.6538 87.6234 36.1343L87.57 37.9496C86.5017 37.3623 85.647 37.0419 84.9526 37.0419C83.8843 37.0419 83.2968 37.5758 83.2968 38.3233C83.2968 39.3377 84.5787 39.8716 85.647 40.5657C87.3563 41.5802 88.2644 42.5946 88.2644 44.1429C88.2644 46.1184 86.8222 47.5066 84.3651 47.5066C83.2968 47.5066 82.2819 47.293 81.3204 46.8125L81.1602 44.6234C82.2819 45.4243 83.2968 45.798 84.2582 45.798Z" fill="#77787B"/>
</g>
<mask id="mask2_48_41088" style="mask-type:luminance" maskUnits="userSpaceOnUse" x="20" y="23" width="165" height="37">
<path d="M185 23H20V60H185V23Z" fill="white"/>
</mask>
<g mask="url(#mask2_48_41088)">
<path d="M105.732 42.4877C105.732 44.6767 106.64 45.7979 108.456 45.7979C110.219 45.7979 111.181 44.6767 111.181 42.4343V35.8672H113.21V42.4343C113.21 45.7445 111.448 47.5064 108.51 47.5064C105.465 47.5064 103.756 45.531 103.756 42.4877V35.8672H105.786V42.4877H105.732Z" fill="#77787B"/>
</g>
<mask id="mask3_48_41088" style="mask-type:luminance" maskUnits="userSpaceOnUse" x="20" y="23" width="165" height="37">
<path d="M185 23H20V60H185V23Z" fill="white"/>
</mask>
<g mask="url(#mask3_48_41088)">
<path d="M118.123 35.8672H120.74C122.183 35.8672 123.304 35.974 124.266 36.6681C125.12 37.2554 125.601 38.163 125.601 39.0707C125.601 40.5656 124.747 41.6868 123.144 42.2207L126.776 47.1861H124.479L121.061 42.5411H120.099V47.1861H118.176V35.8672H118.123ZM123.625 39.2308C123.625 37.4689 121.702 37.5223 120.099 37.5223V40.9927C121.328 40.9927 123.625 41.0995 123.625 39.2308Z" fill="#77787B"/>
</g>
<mask id="mask4_48_41088" style="mask-type:luminance" maskUnits="userSpaceOnUse" x="20" y="23" width="165" height="37">
<path d="M185 23H20V60H185V23Z" fill="white"/>
</mask>
<g mask="url(#mask4_48_41088)">
<path d="M163.688 47.1327H161.711V37.6291H157.865V35.8672H167.48V37.6291H163.688V47.1327Z" fill="#77787B"/>
</g>
<mask id="mask5_48_41088" style="mask-type:luminance" maskUnits="userSpaceOnUse" x="20" y="23" width="165" height="37">
<path d="M185 23H20V60H185V23Z" fill="white"/>
</mask>
<g mask="url(#mask5_48_41088)">
<path d="M72.4544 35.5468C72.4544 35.5468 72.401 35.4934 72.3476 35.4934C72.2942 35.4934 72.2407 35.5468 72.2407 35.5468C69.4631 39.7113 68.3948 41.9537 66.6855 47.186H68.7153C68.8756 46.492 69.3563 45.1038 69.6234 44.4097H75.0718C75.2854 45.1038 75.7662 46.492 75.9798 47.186H78.0096C76.3003 41.9003 75.232 39.6045 72.4544 35.5468ZM70.5314 42.6478C71.0656 41.2062 71.5998 39.9249 72.401 38.6969C73.2022 39.9783 73.8432 41.313 74.3239 42.6478H70.5314Z" fill="#77787B"/>
</g>
<mask id="mask6_48_41088" style="mask-type:luminance" maskUnits="userSpaceOnUse" x="20" y="23" width="165" height="37">
<path d="M185 23H20V60H185V23Z" fill="white"/>
</mask>
<g mask="url(#mask6_48_41088)">
<path d="M135.111 35.5468C135.111 35.5468 135.057 35.4934 135.004 35.4934C134.95 35.4934 134.897 35.5468 134.897 35.5468C132.119 39.7113 131.051 41.9537 129.342 47.186H131.372C131.532 46.492 132.013 45.1038 132.28 44.4097H137.728C137.942 45.1038 138.422 46.492 138.636 47.186H140.666C138.957 41.9003 137.835 39.6045 135.111 35.5468ZM133.134 42.6478C133.668 41.2062 134.203 39.9249 135.004 38.6969C135.805 39.9783 136.446 41.313 136.927 42.6478H133.134Z" fill="#77787B"/>
</g>
<mask id="mask7_48_41088" style="mask-type:luminance" maskUnits="userSpaceOnUse" x="20" y="23" width="165" height="37">
<path d="M185 23H20V60H185V23Z" fill="white"/>
</mask>
<g mask="url(#mask7_48_41088)">
<path d="M146.38 40.1386L153.751 47.5066C153.751 47.5066 153.805 47.5066 153.858 47.4532C153.858 47.4532 153.912 47.3998 153.912 47.3464V35.8673H151.989V42.8082L144.617 35.4402C144.617 35.4402 144.564 35.4402 144.51 35.4936C144.51 35.4936 144.457 35.547 144.457 35.6004V47.1328H146.38V40.1386Z" fill="#77787B"/>
</g>
<mask id="mask8_48_41088" style="mask-type:luminance" maskUnits="userSpaceOnUse" x="20" y="23" width="165" height="37">
<path d="M185 23H20V60H185V23Z" fill="white"/>
</mask>
<g mask="url(#mask8_48_41088)">
<path d="M27.3711 40.6191C27.3711 40.8861 27.3711 41.2064 27.3711 41.4734C27.3711 44.3565 28.1723 47.0794 29.5611 49.3753C30.5226 46.1184 31.9114 42.7014 33.7275 39.231C31.4841 39.6581 29.3475 40.0852 27.3711 40.6191Z" fill="#F9A51A"/>
</g>
<mask id="mask9_48_41088" style="mask-type:luminance" maskUnits="userSpaceOnUse" x="20" y="23" width="165" height="37">
<path d="M185 23H20V60H185V23Z" fill="white"/>
</mask>
<g mask="url(#mask9_48_41088)">
<path d="M30.043 32.7706C32.6603 32.2366 35.4913 31.8095 38.4292 31.6493C39.818 29.6739 41.3136 27.912 42.8092 26.3102C42.7558 26.2569 42.7024 26.1501 42.5956 26.0967C37.4143 26.0967 32.8206 28.7662 30.043 32.7706Z" fill="#F9A51A"/>
</g>
<mask id="mask10_48_41088" style="mask-type:luminance" maskUnits="userSpaceOnUse" x="20" y="23" width="165" height="37">
<path d="M185 23H20V60H185V23Z" fill="white"/>
</mask>
<g mask="url(#mask10_48_41088)">
<path d="M51.3016 28.5527C50.1265 33.091 48.1501 38.003 45.3191 42.9149C44.5179 44.3031 43.6632 45.6379 42.8086 46.8659C43.6632 48.1473 44.5713 49.3219 45.4794 50.4431C46.7613 50.3897 47.9899 50.2829 49.2184 50.1761C50.0197 49.0015 50.7675 47.7201 51.5153 46.4387C53.8122 42.4878 55.5749 38.4835 56.8034 34.7461C55.5749 32.2901 53.6519 30.1011 51.3016 28.5527Z" fill="#F9A51A"/>
</g>
<mask id="mask11_48_41088" style="mask-type:luminance" maskUnits="userSpaceOnUse" x="20" y="23" width="165" height="37">
<path d="M185 23H20V60H185V23Z" fill="white"/>
</mask>
<g mask="url(#mask11_48_41088)">
<path d="M51.3005 28.5526C48.8433 26.9509 45.9589 26.0432 42.8074 26.0432H42.5938C44.944 28.4992 47.1875 31.4357 49.2707 34.746C50.1253 32.6103 50.8197 30.5281 51.3005 28.5526Z" fill="#37B34A"/>
</g>
<mask id="mask12_48_41088" style="mask-type:luminance" maskUnits="userSpaceOnUse" x="20" y="23" width="165" height="37">
<path d="M185 23H20V60H185V23Z" fill="white"/>
</mask>
<g mask="url(#mask12_48_41088)">
<path d="M56.8026 34.8528C56.0013 37.3622 54.933 40.0317 53.5977 42.7013C54.6125 44.8903 55.4138 47.0259 56.0548 49.1616C56.1616 49.1616 56.215 49.1082 56.3218 49.1082C57.6038 46.8658 58.2982 44.303 58.2982 41.5267C58.2982 39.1241 57.7641 36.8816 56.8026 34.8528Z" fill="#37B34A"/>
</g>
<mask id="mask13_48_41088" style="mask-type:luminance" maskUnits="userSpaceOnUse" x="20" y="23" width="165" height="37">
<path d="M185 23H20V60H185V23Z" fill="white"/>
</mask>
<g mask="url(#mask13_48_41088)">
<path d="M40.3516 42.9682C39.5504 41.58 38.8026 40.1919 38.1616 38.8037C36.6126 38.9105 35.1704 39.0707 33.7281 39.2842C33.1406 40.4054 32.6064 41.5267 32.0723 42.6479C32.7132 43.9293 33.4076 45.2106 34.1555 46.492C36.4523 50.443 39.0163 53.9668 41.6336 56.9033C42.0075 56.9567 42.4348 56.9567 42.8622 56.9567C45.3727 56.9567 47.723 56.3694 49.8596 55.3015C46.441 52.0981 43.1827 47.8802 40.3516 42.9682Z" fill="#37B34A"/>
</g>
<mask id="mask14_48_41088" style="mask-type:luminance" maskUnits="userSpaceOnUse" x="20" y="23" width="165" height="37">
<path d="M185 23H20V60H185V23Z" fill="white"/>
</mask>
<g mask="url(#mask14_48_41088)">
<path d="M56.3218 49.1082C53.0101 49.909 49.3244 50.3895 45.4785 50.5497C46.8673 52.3116 48.3629 53.9133 49.8052 55.3549C52.5828 53.9667 54.8262 51.7777 56.3218 49.1082Z" fill="#0077BF"/>
</g>
<mask id="mask15_48_41088" style="mask-type:luminance" maskUnits="userSpaceOnUse" x="20" y="23" width="165" height="37">
<path d="M185 23H20V60H185V23Z" fill="white"/>
</mask>
<g mask="url(#mask15_48_41088)">
<path d="M36.4518 50.2828C34.0481 50.0159 31.7513 49.6421 29.6146 49.1616C29.5612 49.2684 29.5612 49.3218 29.5078 49.4286C32.0183 53.6465 36.4518 56.5296 41.6331 56.9567C39.817 54.9812 38.1077 52.7388 36.4518 50.2828Z" fill="#0077BF"/>
</g>
<mask id="mask16_48_41088" style="mask-type:luminance" maskUnits="userSpaceOnUse" x="20" y="23" width="165" height="37">
<path d="M185 23H20V60H185V23Z" fill="white"/>
</mask>
<g mask="url(#mask16_48_41088)">
<path d="M42.8081 31.4893C38.2144 31.4893 33.8878 31.9698 30.0419 32.7706C28.4928 35.0131 27.5313 37.736 27.3711 40.6725C31.858 39.3911 37.1461 38.697 42.8081 38.697C44.4106 38.697 45.9596 38.7504 47.5087 38.8572C48.1497 37.4691 48.7906 36.1343 49.3248 34.7461C48.6304 33.6783 47.936 32.6105 47.2416 31.6494C45.7994 31.4893 44.3038 31.4893 42.8081 31.4893Z" fill="#0077BF"/>
</g>
<mask id="mask17_48_41088" style="mask-type:luminance" maskUnits="userSpaceOnUse" x="20" y="23" width="165" height="37">
<path d="M185 23H20V60H185V23Z" fill="white"/>
</mask>
<g mask="url(#mask17_48_41088)">
<path d="M171.006 38.1631C171.006 37.5224 171.22 37.0419 171.647 36.5613C172.074 36.1342 172.608 35.9207 173.249 35.9207C173.89 35.9207 174.424 36.1342 174.852 36.5613C175.279 36.9885 175.493 37.5224 175.493 38.1631C175.493 38.8038 175.279 39.2843 174.852 39.7648C174.424 40.1919 173.89 40.4055 173.249 40.4055C172.608 40.4055 172.128 40.1919 171.647 39.7648C171.273 39.2843 171.006 38.8038 171.006 38.1631ZM175.172 38.1631C175.172 37.6292 175.012 37.202 174.638 36.8283C174.264 36.4546 173.837 36.2944 173.303 36.2944C172.769 36.2944 172.341 36.4546 171.967 36.8283C171.593 37.202 171.433 37.6292 171.433 38.1631C171.433 38.697 171.593 39.1241 171.967 39.4979C172.341 39.8716 172.769 40.0318 173.303 40.0318C173.837 40.0318 174.264 39.8716 174.638 39.4979C174.959 39.1241 175.172 38.697 175.172 38.1631ZM173.997 39.4979L173.303 38.3233H172.929V39.4979H172.555V36.7215H173.249C173.944 36.7215 174.264 36.9885 174.264 37.469C174.264 37.8427 174.104 38.0563 173.73 38.2165L174.478 39.4445H173.997V39.4979ZM172.875 37.0953V38.0029C172.929 38.0029 172.982 38.0029 173.142 38.0029C173.41 38.0029 173.57 37.9495 173.677 37.8961C173.783 37.8427 173.783 37.6826 173.783 37.5224C173.783 37.202 173.57 37.0419 173.196 37.0419H173.036L172.875 37.0953Z" fill="#77787B"/>
</g>
</g>
<defs>
<clipPath id="clip0_48_41088">
<rect width="165" height="37" fill="white" transform="translate(20 23)"/>
</clipPath>
</defs>
</svg>
