<svg width="204" height="84" viewBox="0 0 204 84" fill="none" xmlns="http://www.w3.org/2000/svg">
<rect width="204" height="83.6923" rx="9.2878" fill="white"/>
<path d="M88.1352 56.6059C83.6803 53.7186 77.6344 53.2119 67.8841 55.9336C57.4896 58.3911 54.0239 59.9665 49.4724 56.804C47.7239 55.2505 47.097 52.7491 47.5651 49.146C48.6508 43.2724 51.585 37.62 56.7968 31.3501C59.7058 28.0886 62.4044 25.2895 65.9675 24.1656C68.6984 23.4605 68.4431 25.6197 68.1126 25.9285C67.7639 25.9285 67.1782 25.9838 66.7255 26.281C66.3581 26.5677 65.3496 27.4934 65.2954 28.7386C65.2173 30.6447 67.1779 30.248 68.0236 29.2014C68.9351 28.022 70.2823 25.7635 69.2226 23.6586C68.7784 22.9094 68.011 22.3916 67.0582 22.2153C63.7954 22.0277 60.7568 23.5925 57.9523 25.3225C51.8192 29.609 46.9131 35.5485 44.137 42.05C42.5366 45.9727 41.0891 51.5918 43.2587 56.1653C44.9372 59.3386 48.4216 61.0242 52.5788 60.6718C55.4945 60.3635 59.0202 59.4154 61.3915 58.843C63.7629 58.2695 75.9011 54.0717 79.8894 61.3779C79.8894 61.3779 81.2156 58.7877 84.53 58.7325C87.2549 58.4795 91.186 59.5261 94.0486 61.6414C93.0949 60.1984 90.3909 58.0716 88.1352 56.6059Z" fill="#E61A27"/>
<path d="M69.1209 32.0883C66.8506 30.5897 62.2877 33.4547 58.633 38.369C55.2909 42.7771 53.8478 47.9005 55.4184 50.2696C57.7545 53.0574 62.0916 49.0025 63.936 46.8321L64.1739 46.5783C65.4282 45.2229 66.397 43.592 67.3351 42.027C67.3351 42.027 68.1971 40.5945 68.2382 40.5283C68.771 40.4295 69.4127 40.2752 70.1359 40.0657C70.1255 40.0986 67.3692 44.7598 67.6504 47.0734C67.7379 47.7793 67.6712 50.3577 70.1733 51.1399C73.5082 51.7023 76.1711 49.1014 78.5204 46.7873C78.5204 46.7873 78.9207 46.402 79.1471 46.1821C79.0898 46.4127 79.0151 46.7206 79.0151 46.7206C78.0388 50.1367 79.3549 50.8535 80.1781 51.1179C82.6661 51.8458 85.6384 48.2091 85.6481 48.2091C85.5709 49.3546 85.3457 50.3022 86.5459 51.0627C87.6786 51.4707 88.8251 50.8486 89.6967 50.2645C92.8357 48.0388 95.3646 44.555 97.407 41.5439H96.1042C96.0887 41.5439 92.8893 46.2096 90.8116 47.2237C90.8083 47.2237 90.4302 47.419 90.2124 47.2645C89.9426 47.0331 90.049 46.5517 90.2156 46.2108C90.226 46.1887 98.2376 32.2087 98.2376 32.2087H94.455C94.455 32.2087 94.0418 32.8813 94.0081 32.9254C93.9827 32.9034 93.922 32.7878 93.8801 32.7324C91.5366 29.4708 86.2294 34.4877 82.2338 40.3056C80.6955 42.5427 78.7369 45.0615 76.7061 46.8796C76.7061 46.8796 73.6975 49.6543 72.4121 47.6608C71.9422 46.8232 72.0867 45.5986 72.3518 44.7944C73.8485 40.5078 76.4275 36.6176 79.3623 34.2704C80.1907 33.6207 81.0913 33.4328 81.538 33.7084C81.9639 33.9622 82.0326 34.5898 81.7632 35.0197C81.0798 34.9977 80.532 35.2067 80.087 35.6695C79.21 36.5952 78.9053 37.4879 79.1841 38.3255C80.5386 40.2648 83.24 36.43 83.1094 34.094C83.0627 33.2564 82.6187 32.4632 81.9557 32.0771C80.9678 31.4824 79.4608 31.6364 78.4855 32.1106C77.1798 32.6062 75.1132 34.3361 73.9068 35.6806C72.3881 37.3668 69.7834 39.2399 68.969 39.0301C69.2352 38.3138 71.4353 33.785 69.1209 32.0883ZM87.3579 38.7879C88.0938 37.7633 90.2355 35.0194 90.7576 34.5567C92.5136 33.0024 93.2155 33.6862 93.2763 34.1708C91.6374 37.1238 89.7031 40.5069 87.8845 43.5483C87.8883 43.5375 87.3154 44.4188 87.3154 44.4188C86.5122 45.6525 85.7035 46.7105 84.3843 47.4486C84.1962 47.5042 83.8861 47.5263 83.6797 47.3714C83.4313 47.2061 83.3333 46.9305 83.3612 46.644C83.4404 45.6966 84.3991 42.7991 87.3579 38.7879ZM66.7797 40.5619C66.7797 40.5619 66.7466 40.6614 66.7305 40.6939C66.7263 40.6939 65.0811 43.3933 65.0811 43.3933C64.0883 44.7268 62.8487 46.4022 61.2992 47.2062C60.8399 47.3604 60.2049 47.4599 59.8814 47.0525C59.1955 46.2259 59.549 45.0798 59.8362 44.1544L59.938 43.8237C60.7614 41.5761 62.0677 39.5922 63.3395 37.752C63.3553 37.7411 63.3909 37.7302 63.4038 37.7302C63.4069 37.7411 63.412 37.7411 63.4141 37.7633C64.2121 39.3057 65.7083 40.0216 66.8273 40.3527C66.834 40.3527 66.8414 40.3637 66.8414 40.3859C66.8415 40.4187 66.8233 40.4631 66.7797 40.5619ZM68.3382 37.3777C68.3309 37.3997 67.6055 39.0746 67.6055 39.0746C67.5006 39.1626 67.3348 39.1187 67.1447 39.0746L66.8191 39.0192C65.7965 38.6998 65.0252 38.0165 64.7874 37.2012C64.4595 35.6144 65.8068 34.3692 66.4003 33.9177C66.9699 33.5206 67.8554 33.3113 68.3696 33.7192C68.6868 34.094 68.8069 34.5786 68.8069 35.1079C68.8071 35.8238 68.5874 36.6282 68.3382 37.3777ZM116.159 42.4902C115.794 41.697 114.928 41.19 114.005 41.245C111.009 41.5207 108.078 43.9999 106.539 47.5588C105.731 49.3882 105.291 50.8977 105.002 53.2998C105.933 52.2202 107.834 50.4463 109.991 49.4765C109.991 49.4765 110.284 47.1735 111.781 45.1239C112.347 44.2751 113.48 42.9089 114.753 43.2724C115.865 43.6471 115.474 46.7437 113.996 49.7402C112.903 51.9444 111.23 54.1488 109.537 55.6691C108.04 56.9473 105.826 58.49 103.888 57.3C102.668 56.5731 102.046 55.0519 102.177 53.0907C102.76 47.5262 105.278 42.7878 108.881 37.3885C112.596 32.3748 116.691 27.2289 122.208 24.4847C123.333 23.9118 124.375 23.7796 125.276 24.1322C125.276 24.1322 120.097 26.9972 117.628 32.2976C117.001 33.6421 116.127 35.4598 117.007 37.0687C117.466 37.906 118.282 37.9723 118.939 37.9282C121.965 37.2227 123.92 34.3799 125.517 31.7796C126.443 29.8072 127.267 27.8458 127.267 25.6639C127.267 25.3995 127.253 25.047 127.231 24.7823C128.676 24.0113 131.641 25.3774 131.641 25.3774C133.957 26.149 138.89 29.9508 140.554 30.6778C141.365 29.7303 142.699 28.2979 143.45 27.5815L142.363 26.9092C140.622 25.8404 138.783 24.8265 136.972 23.8238C132.86 21.5652 129.512 22.3584 127.809 22.9755C127.139 23.2178 126.527 23.4272 126.527 23.4272C125.263 22.0389 123.189 22.1708 121.661 22.5457C116.167 24.1323 111.066 27.9999 105.597 34.7108C101.576 39.9671 99.0817 44.5072 97.7523 48.9918C96.7276 52.0109 96.4162 56.4516 98.9172 59.0853C101.044 61.3217 103.863 60.8372 105.854 60.0331C110.168 57.8954 114.046 53.2891 115.978 47.9887C116.444 46.4132 116.961 44.1874 116.159 42.4902ZM126.079 25.8845C125.508 32.474 120.417 36.3421 119.157 36.6501C118.394 36.8042 117.091 36.4628 118.254 33.6974C119.966 29.9725 122.89 26.8103 126.027 25.1904C126.103 25.4659 126.101 25.6418 126.079 25.8845ZM156.279 26.7216C153.54 28.2866 150.701 29.3001 147.265 28.9476C146.313 30.0278 145.385 31.1406 144.531 32.2864C149.354 33.5206 154.467 30.7768 157.319 28.1656C160.336 25.5319 161.883 22.2153 161.883 22.2153C161.883 22.2153 159.621 24.8156 156.279 26.7216ZM104.524 32.209H100.932L98.9058 35.5215H102.497L104.524 32.209Z" fill="#E61A27"/>
<path d="M147.252 56.9124C146.866 57.1768 146.323 56.9736 146.526 56.3677C147.031 54.825 149.041 51.6812 149.041 51.6812L154.637 41.6947H150.804C150.621 41.9958 150.232 42.6872 150.232 42.6872C150.054 42.39 149.524 41.7292 149.306 41.5863C148.369 40.9908 146.995 41.2723 146.047 41.8121C141.926 44.2367 138.919 49.027 136.547 52.7627C136.547 52.7627 134.051 56.9153 132.665 57.2241C131.584 57.3123 131.695 55.8461 131.742 55.5045C132.16 53.0358 133.132 50.6889 134.11 48.5622C136.101 47.1738 138.373 45.3557 140.437 43.3613C144.917 39.0524 148.695 34.1709 149.247 33.08C149.247 33.08 148.649 33.2014 147.943 33.2232C144.497 38.0606 137.443 45.0912 135.305 46.1378C136.252 43.8452 142.373 32.9036 147.581 27.6696L148.4 26.8759C149.668 25.6307 150.981 24.3526 152.004 24.1431C152.112 24.1322 152.252 24.1431 152.372 24.397C152.417 25.3665 152.059 26.0829 151.647 26.8982L151.07 28.0884C151.07 28.0884 151.887 27.9341 152.424 27.7573C153.046 26.5789 153.736 25.2561 153.482 23.6808C153.397 23.1738 153.032 22.7882 152.555 22.7C151.002 22.4024 149.309 23.5591 147.946 24.4961L147.891 24.5289C140.887 30.0496 134.973 38.0055 129.802 48.8705C129.427 49.1566 127.979 49.4986 127.733 49.3331C128.244 48.2755 128.887 46.8537 129.208 45.311C129.264 44.87 129.316 44.4186 129.316 43.9779C129.316 43.0295 129.09 42.1372 128.245 41.5205C127.255 41.0245 126.031 41.2561 125.206 41.6304C121.51 43.1731 118.748 46.986 116.754 50.1261C115.682 52.1211 114.613 54.2578 114.317 56.7045C114.109 58.6215 114.533 59.8559 115.616 60.473C116.73 61.0456 118.133 60.4505 118.684 60.1642C122.428 58.1807 125.045 54.203 127.107 50.5665C127.189 50.5557 128.315 50.5229 129.167 50.3021C129.178 50.3021 129.183 50.3021 129.201 50.3136C129.153 50.4783 128.713 51.801 128.713 51.801C127.405 55.6573 126.801 58.2802 128.036 59.8337C129.8 62.0266 132.721 59.7569 135.097 56.7592C134.587 60.3512 136.437 60.9136 137.848 60.6384C139.468 60.1978 141.274 58.4564 142.112 57.5641C141.843 58.6107 141.916 60.4843 143.39 60.6713C144.4 60.8592 145.156 60.3064 146.031 59.8324C149.169 58.1132 152.925 52.3846 153.901 50.7284H152.622C151.235 52.8368 149.471 55.6006 147.252 56.9124ZM119.084 56.5288C118.885 56.2311 118.819 55.9059 118.813 55.5542C118.774 53.3934 121.085 49.5241 122.716 47.4162H122.719C123.403 48.9219 124.95 49.8897 125.885 50.2976C124.724 52.8983 120.745 58.4681 119.084 56.5288ZM126.54 49.1349C126.429 49.2126 124.478 48.551 124.1 46.7329C123.78 45.1677 124.852 43.9446 125.888 43.3282C126.333 42.9753 127.003 42.8545 127.495 43.0301C127.951 43.3392 128.075 43.8906 128.075 44.4845C128.075 44.8489 128.027 45.2232 127.984 45.5647L127.975 45.6421C127.648 46.8637 127.166 48.0378 126.54 49.1349ZM142.193 55.8347C142.191 55.8347 141.823 56.1652 141.823 56.1652C141.296 56.6389 140.754 57.1457 140.1 56.8921C139.92 56.8262 139.793 56.5839 139.762 56.396C139.732 55.0406 140.339 53.7847 140.927 52.5617L141.078 52.242C142.771 49.3992 144.738 46.0494 147.627 43.7246C148.113 43.3712 148.642 43.0743 149.199 43.3059C149.328 43.427 149.477 43.6364 149.477 43.8455C149.477 43.9119 149.418 44.0881 149.385 44.143C148.578 45.4549 147.809 46.832 147.062 48.1543C145.602 50.7659 144.087 53.4651 142.193 55.8347Z" fill="#E61A27"/>
</svg>
